<svg width="17" height="18" viewBox="0 0 17 18" fill="none" xmlns="http://www.w3.org/2000/svg">
<g clip-path="url(#clip0_566_485)">
<path fill-rule="evenodd" clip-rule="evenodd" d="M4.23787 1.21498C4.12975 1.10536 3.94468 1.08857 3.80073 1.20584C3.25733 1.64855 2.59593 2.26298 2.03708 2.94528C1.47168 3.63557 1.04501 4.35477 0.914191 5.00888C0.876595 5.19686 0.889248 5.4942 0.988767 5.90207C1.08641 6.30223 1.2596 6.77639 1.50882 7.30178C2.00708 8.35217 2.79479 9.57697 3.83383 10.7801C5.89627 13.1681 8.90544 15.4221 12.5296 16.0936C12.7498 16.0184 13.149 15.8217 13.6732 15.4272C14.2636 14.9828 14.9927 14.302 15.7743 13.3052C15.9011 13.1435 15.8764 12.925 15.7319 12.8012C14.9144 12.1006 13.6524 11.2067 12.4398 10.8354C12.3346 10.8031 12.1971 10.8323 12.0849 10.9445L10.8776 12.1517L10.6079 12.0506C9.34457 11.5768 6.4932 9.90419 4.99645 6.91069L4.85224 6.62229L6.10601 5.36852C6.20974 5.26479 6.24444 5.1351 6.22022 5.02655C5.99567 4.02004 5.39327 2.38644 4.23787 1.21498ZM3.2356 0.51217C3.71236 0.123751 4.42081 0.126297 4.87489 0.58669C6.19204 1.92214 6.84895 3.73561 7.09349 4.83172C7.19192 5.27291 7.03323 5.70665 6.73868 6.0012L5.94545 6.79443C7.24275 9.1613 9.47533 10.5847 10.6589 11.1051L11.4522 10.3118C11.763 10.001 12.2349 9.83686 12.7018 9.97984C14.0901 10.405 15.464 11.3933 16.3141 12.1218C16.8338 12.5672 16.8914 13.3307 16.4784 13.8573C15.6525 14.9105 14.8685 15.6473 14.2112 16.142C13.5629 16.63 13.0167 16.8983 12.663 16.9867L12.5705 17.0098L12.4767 16.9933C8.54141 16.2988 5.32479 13.8753 3.15667 11.3649C2.0707 10.1074 1.2367 8.81579 0.700423 7.68525C0.432379 7.12018 0.23509 6.58776 0.119531 6.11416C0.0058511 5.64826 -0.0374177 5.20465 0.036829 4.83341C0.210215 3.96648 0.744973 3.11077 1.34489 2.37833C1.95137 1.63789 2.65918 0.981777 3.2356 0.51217Z" fill="#E1C167"/>
<path fill-rule="evenodd" clip-rule="evenodd" d="M13.6068 2.242C12.208 1.23483 10.5159 0.894737 9.39453 0.894737V0C10.6591 0 12.546 0.375691 14.1296 1.51589C15.736 2.67252 16.9998 4.5963 16.9998 7.60526H16.1051C16.1051 4.88791 14.9828 3.23275 13.6068 2.242ZM11.9014 4.29592C11.1749 3.75609 10.3543 3.57895 9.8419 3.57895V2.68421C10.5225 2.68421 11.5361 2.9097 12.4351 3.57776C13.3492 4.25709 14.1204 5.37672 14.3128 7.10849L13.4236 7.2073C13.2581 5.71801 12.6127 4.82449 11.9014 4.29592Z" fill="#E1C167"/>
</g>
<defs>
<clipPath id="clip0_566_485">
<rect width="17" height="18" fill="white"/>
</clipPath>
</defs>
</svg>
