<svg width="16" height="20" viewBox="0 0 16 20" fill="none" xmlns="http://www.w3.org/2000/svg">
<g clip-path="url(#clip0_566_491)">
<path d="M14.0841 3.32509C12.6241 1.2121 10.3103 0 7.73631 0C5.16236 0 2.84853 1.2121 1.38856 3.32509C-0.0642394 5.4274 -0.399695 8.08898 0.489427 10.4405C0.727245 11.0826 1.10528 11.7065 1.61035 12.2911L7.22724 18.8887C7.35427 19.0381 7.5404 19.1241 7.73631 19.1241C7.93222 19.1241 8.11834 19.0381 8.24538 18.8887L13.8607 12.2929C14.368 11.7049 14.7456 11.0817 14.9814 10.4447C15.8723 8.08898 15.5369 5.4274 14.0841 3.32509ZM13.7292 9.9764C13.5474 10.4679 13.2504 10.9538 12.8472 11.4212C12.8461 11.4223 12.845 11.4234 12.8441 11.4248L7.73631 17.4241L2.62539 11.421C2.2224 10.954 1.92549 10.4681 1.74183 9.97196C1.00652 8.02724 1.28558 5.82662 2.48853 4.08561C3.69526 2.33904 5.60812 1.33734 7.73631 1.33734C9.86447 1.33734 11.7771 2.33901 12.9839 4.08561C14.187 5.82662 14.4663 8.02724 13.7292 9.9764Z" fill="#E1C167"/>
<path d="M7.73678 3.96753C5.67212 3.96753 3.99219 5.64724 3.99219 7.71212C3.99219 9.777 5.6719 11.4567 7.73678 11.4567C9.80166 11.4567 11.4814 9.777 11.4814 7.71212C11.4814 5.64746 9.80144 3.96753 7.73678 3.96753ZM7.73678 10.1193C6.40945 10.1193 5.32953 9.03942 5.32953 7.71208C5.32953 6.38475 6.40945 5.30484 7.73678 5.30484C9.06411 5.30484 10.144 6.38475 10.144 7.71208C10.144 9.03942 9.06411 10.1193 7.73678 10.1193Z" fill="#E1C167"/>
</g>
<defs>
<clipPath id="clip0_566_491">
<rect width="16" height="20" fill="white"/>
</clipPath>
</defs>
</svg>
