<svg width="17" height="17" viewBox="0 0 17 17" fill="none" xmlns="http://www.w3.org/2000/svg">
<g clip-path="url(#clip0_566_494)">
<path fill-rule="evenodd" clip-rule="evenodd" d="M0 1.69995H2V2.69995H0V1.69995Z" fill="#E1C167"/>
<path fill-rule="evenodd" clip-rule="evenodd" d="M0 13.7H2V14.7H0V13.7Z" fill="#E1C167"/>
<path fill-rule="evenodd" clip-rule="evenodd" d="M17 2.69995H5V1.69995H17V2.69995Z" fill="#E1C167"/>
<path fill-rule="evenodd" clip-rule="evenodd" d="M11 8.69995H0V7.69995H11V8.69995Z" fill="#E1C167"/>
<path fill-rule="evenodd" clip-rule="evenodd" d="M14 7.69995H17V8.69995H14V7.69995Z" fill="#E1C167"/>
<path fill-rule="evenodd" clip-rule="evenodd" d="M17 14.7H6V13.7H17V14.7Z" fill="#E1C167"/>
<path fill-rule="evenodd" clip-rule="evenodd" d="M4 3.19995C4.55228 3.19995 5 2.75224 5 2.19995C5 1.64767 4.55228 1.19995 4 1.19995C3.44772 1.19995 3 1.64767 3 2.19995C3 2.75224 3.44772 3.19995 4 3.19995ZM4 4.19995C5.10457 4.19995 6 3.30452 6 2.19995C6 1.09538 5.10457 0.199951 4 0.199951C2.89543 0.199951 2 1.09538 2 2.19995C2 3.30452 2.89543 4.19995 4 4.19995Z" fill="#E1C167"/>
<path fill-rule="evenodd" clip-rule="evenodd" d="M4.00078 0.4C3.00667 0.4 2.20078 1.20589 2.20078 2.2C2.20078 3.19411 3.00667 4 4.00078 4C4.99489 4 5.80078 3.19411 5.80078 2.2C5.80078 1.20589 4.99489 0.4 4.00078 0.4ZM1.80078 2.2C1.80078 0.984974 2.78575 0 4.00078 0C5.21581 0 6.20078 0.984974 6.20078 2.2C6.20078 3.41503 5.21581 4.4 4.00078 4.4C2.78575 4.4 1.80078 3.41503 1.80078 2.2ZM4.00078 1.4C3.55895 1.4 3.20078 1.75817 3.20078 2.2C3.20078 2.64183 3.55895 3 4.00078 3C4.44261 3 4.80078 2.64183 4.80078 2.2C4.80078 1.75817 4.44261 1.4 4.00078 1.4ZM2.80078 2.2C2.80078 1.53726 3.33804 1 4.00078 1C4.66352 1 5.20078 1.53726 5.20078 2.2C5.20078 2.86274 4.66352 3.4 4.00078 3.4C3.33804 3.4 2.80078 2.86274 2.80078 2.2Z" fill="#E1C167"/>
<path fill-rule="evenodd" clip-rule="evenodd" d="M12 9.19995C12.5523 9.19995 13 8.75224 13 8.19995C13 7.64767 12.5523 7.19995 12 7.19995C11.4477 7.19995 11 7.64767 11 8.19995C11 8.75224 11.4477 9.19995 12 9.19995ZM12 10.2C13.1046 10.2 14 9.30452 14 8.19995C14 7.09538 13.1046 6.19995 12 6.19995C10.8954 6.19995 10 7.09538 10 8.19995C10 9.30452 10.8954 10.2 12 10.2Z" fill="#E1C167"/>
<path fill-rule="evenodd" clip-rule="evenodd" d="M12.0008 6.4C11.0067 6.4 10.2008 7.20589 10.2008 8.2C10.2008 9.19411 11.0067 10 12.0008 10C12.9949 10 13.8008 9.19411 13.8008 8.2C13.8008 7.20589 12.9949 6.4 12.0008 6.4ZM9.80078 8.2C9.80078 6.98497 10.7858 6 12.0008 6C13.2158 6 14.2008 6.98497 14.2008 8.2C14.2008 9.41503 13.2158 10.4 12.0008 10.4C10.7858 10.4 9.80078 9.41503 9.80078 8.2ZM12.0008 7.4C11.559 7.4 11.2008 7.75817 11.2008 8.2C11.2008 8.64183 11.559 9 12.0008 9C12.4426 9 12.8008 8.64183 12.8008 8.2C12.8008 7.75817 12.4426 7.4 12.0008 7.4ZM10.8008 8.2C10.8008 7.53726 11.338 7 12.0008 7C12.6635 7 13.2008 7.53726 13.2008 8.2C13.2008 8.86274 12.6635 9.4 12.0008 9.4C11.338 9.4 10.8008 8.86274 10.8008 8.2Z" fill="#E1C167"/>
<path fill-rule="evenodd" clip-rule="evenodd" d="M4 15.2C4.55228 15.2 5 14.7522 5 14.2C5 13.6477 4.55228 13.2 4 13.2C3.44772 13.2 3 13.6477 3 14.2C3 14.7522 3.44772 15.2 4 15.2ZM4 16.2C5.10457 16.2 6 15.3045 6 14.2C6 13.0954 5.10457 12.2 4 12.2C2.89543 12.2 2 13.0954 2 14.2C2 15.3045 2.89543 16.2 4 16.2Z" fill="#E1C167"/>
<path fill-rule="evenodd" clip-rule="evenodd" d="M4.00078 12.4C3.00667 12.4 2.20078 13.2059 2.20078 14.2C2.20078 15.1941 3.00667 16 4.00078 16C4.99489 16 5.80078 15.1941 5.80078 14.2C5.80078 13.2059 4.99489 12.4 4.00078 12.4ZM1.80078 14.2C1.80078 12.985 2.78575 12 4.00078 12C5.21581 12 6.20078 12.985 6.20078 14.2C6.20078 15.415 5.21581 16.4 4.00078 16.4C2.78575 16.4 1.80078 15.415 1.80078 14.2ZM4.00078 13.4C3.55895 13.4 3.20078 13.7582 3.20078 14.2C3.20078 14.6418 3.55895 15 4.00078 15C4.44261 15 4.80078 14.6418 4.80078 14.2C4.80078 13.7582 4.44261 13.4 4.00078 13.4ZM2.80078 14.2C2.80078 13.5373 3.33804 13 4.00078 13C4.66352 13 5.20078 13.5373 5.20078 14.2C5.20078 14.8627 4.66352 15.4 4.00078 15.4C3.33804 15.4 2.80078 14.8627 2.80078 14.2Z" fill="#E1C167"/>
</g>
<defs>
<clipPath id="clip0_566_494">
<rect width="17" height="17" fill="white"/>
</clipPath>
</defs>
</svg>
