<svg width="36" height="36" viewBox="0 0 36 36" fill="none" xmlns="http://www.w3.org/2000/svg">
<g clip-path="url(#clip0_363_16)">
<path d="M22.6605 28.2406C22.1373 28.2406 21.6833 27.8517 21.6154 27.3191C21.5421 26.7413 21.9508 26.2134 22.5284 26.1398C25.8611 25.7151 28.8455 24.8121 30.9318 23.5964C32.8399 22.4849 33.8904 21.1781 33.8904 19.9168C33.8904 18.5268 32.6611 17.3894 31.6295 16.6797C31.1496 16.3496 31.0282 15.6932 31.3584 15.2131C31.6885 14.7332 32.3452 14.6118 32.825 14.942C34.902 16.3707 35.9998 18.0909 35.9998 19.9171C35.9998 21.9897 34.6147 23.8922 31.9939 25.4191C29.6349 26.7934 26.4541 27.7663 22.7951 28.2324C22.7498 28.2379 22.7047 28.2406 22.6605 28.2406Z" fill="white"/>
<path d="M17.7429 26.7297L14.9304 23.9172C14.5184 23.5052 13.8507 23.5052 13.4387 23.9172C13.027 24.3289 13.027 24.9969 13.4387 25.4086L14.2605 26.2304C11.1096 25.9049 8.24715 25.1713 6.03066 24.1054C3.53869 22.907 2.10937 21.3802 2.10937 19.9168C2.10937 18.6756 3.13275 17.3856 4.9908 16.2842C5.49205 15.9873 5.6574 15.3402 5.36049 14.8392C5.06331 14.338 4.41622 14.1726 3.91524 14.4695C0.679228 16.3877 0 18.4905 0 19.9168C0 22.2569 1.81714 24.4196 5.1166 26.0065C7.67751 27.2378 10.9902 28.0626 14.5992 28.3818L13.4387 29.5422C13.027 29.9539 13.027 30.6219 13.4387 31.0339C13.6447 31.2396 13.9147 31.3426 14.1847 31.3426C14.4544 31.3426 14.7244 31.2396 14.9304 31.0339L17.7429 28.2214C18.1546 27.8094 18.1546 27.1414 17.7429 26.7297Z" fill="white"/>
<path d="M11.0459 17.8047V17.5509C11.0459 16.6558 10.4979 16.4822 9.76321 16.4822C9.30892 16.4822 9.16198 16.0815 9.16198 15.6808C9.16198 15.2798 9.30892 14.8791 9.76321 14.8791C10.2708 14.8791 10.8053 14.8123 10.8053 13.7302C10.8053 12.9553 10.3644 12.7683 9.81649 12.7683C9.16198 12.7683 8.828 12.9287 8.828 13.4497C8.828 13.9037 8.6275 14.2111 7.85269 14.2111C6.89084 14.2111 6.77081 14.0106 6.77081 13.3693C6.77081 12.3275 7.51871 10.9781 9.81649 10.9781C11.5133 10.9781 12.7957 11.5925 12.7957 13.3962C12.7957 14.3712 12.4351 15.2798 11.7671 15.5871C12.5554 15.881 13.1297 16.4688 13.1297 17.5509V17.8047C13.1297 19.9956 11.6202 20.824 9.74975 20.824C7.45196 20.824 6.57031 19.4213 6.57031 18.2991C6.57031 17.6979 6.8241 17.5375 7.55881 17.5375C8.41381 17.5375 8.6275 17.7245 8.6275 18.2323C8.6275 18.8602 9.21554 19.0072 9.81649 19.0072C10.7251 19.0072 11.0459 18.6732 11.0459 17.8047Z" fill="white"/>
<path d="M21.2388 17.5509V17.6712C21.2388 19.969 19.8093 20.824 17.9658 20.824C16.1223 20.824 14.6792 19.969 14.6792 17.6712V14.1309C14.6792 11.8331 16.1621 10.9781 18.0861 10.9781C20.3437 10.9781 21.2388 12.3808 21.2388 13.4896C21.2388 14.1309 20.9315 14.3311 20.2635 14.3311C19.6892 14.3311 19.1814 14.1842 19.1814 13.5698C19.1814 13.0622 18.6472 12.7949 18.0193 12.7949C17.231 12.7949 16.7633 13.2091 16.7633 14.1309V15.3331C17.1909 14.8656 17.7922 14.7453 18.4335 14.7453C19.9562 14.7453 21.2388 15.4133 21.2388 17.5509ZM16.7633 17.8182C16.7633 18.7399 17.2176 19.1406 17.9658 19.1406C18.7139 19.1406 19.1547 18.7399 19.1547 17.8182V17.6979C19.1547 16.7226 18.7139 16.3485 17.9523 16.3485C17.231 16.3485 16.7633 16.6959 16.7633 17.5776V17.8182Z" fill="white"/>
<path d="M22.8555 17.6712V14.1309C22.8555 11.8331 24.2848 10.9781 26.1286 10.9781C27.9721 10.9781 29.4148 11.8331 29.4148 14.1309V17.6712C29.4148 19.969 27.9721 20.824 26.1286 20.824C24.2848 20.824 22.8555 19.969 22.8555 17.6712V17.6712ZM27.3307 14.1309C27.3307 13.2091 26.8767 12.7949 26.1286 12.7949C25.3804 12.7949 24.9396 13.2091 24.9396 14.1309V17.6712C24.9396 18.593 25.3804 19.0072 26.1286 19.0072C26.8767 19.0072 27.3307 18.593 27.3307 17.6712V14.1309Z" fill="white"/>
<path d="M31.9468 10.9687C30.2019 10.9687 28.7827 9.54931 28.7827 7.80468C28.7827 6.06006 30.2019 4.64062 31.9468 4.64062C33.6914 4.64062 35.1108 6.06006 35.1108 7.80468C35.1108 9.54931 33.6914 10.9687 31.9468 10.9687ZM31.9468 6.75C31.365 6.75 30.8921 7.22323 30.8921 7.80468C30.8921 8.38641 31.365 8.85937 31.9468 8.85937C32.5282 8.85937 33.0015 8.38641 33.0015 7.80468C33.0015 7.22323 32.5282 6.75 31.9468 6.75Z" fill="white"/>
</g>
<defs>
<clipPath id="clip0_363_16">
<rect width="36" height="36" fill="white"/>
</clipPath>
</defs>
</svg>
