<svg width="62" height="76" viewBox="0 0 62 76" fill="none" xmlns="http://www.w3.org/2000/svg">
<path fill-rule="evenodd" clip-rule="evenodd" d="M16.2811 39.3956H23.1862C19.7338 36.1162 17.5601 30.8227 17.5601 25.2422C17.5601 15.7503 23.7136 7.72864 30.999 7.72864C38.2844 7.72864 44.4552 15.747 44.4552 25.2422C44.4535 30.8238 42.282 36.1158 38.8307 39.3956H45.7281C48.396 35.1657 49.7957 30.255 49.7544 25.2464C49.7587 12.6075 41.3414 2.32427 30.9998 2.32427C20.6582 2.32427 12.2528 12.6075 12.2528 25.2432C12.2112 30.253 13.6116 35.1651 16.2811 39.3956ZM19.7211 25.2432C19.7211 31.3168 22.5375 36.9667 26.754 39.3956H35.2589C39.4745 36.9657 42.292 31.3169 42.292 25.2432C42.292 16.9189 37.1201 9.89188 30.9979 9.89188C24.8757 9.89188 19.7211 16.9189 19.7211 25.2432ZM48.2464 39.3956H51.5188C52.9367 39.3973 54.296 39.9614 55.2986 40.9639C55.89 41.5554 56.3288 42.2709 56.5896 43.0494C57.1635 42.7871 57.6756 42.3978 58.0846 41.9057C58.7201 41.1411 59.0661 40.177 59.0618 39.1827V11.0271C59.0618 9.90049 58.615 8.81993 57.8193 8.02242C57.0236 7.22491 55.944 6.77558 54.8175 6.773H45.1367C49.304 11.361 51.9209 17.9433 51.9209 25.2432C51.957 30.2124 50.6841 35.0916 48.2464 39.3956ZM42.8804 4.61084H54.8175C56.5173 4.61399 58.1465 5.2913 59.3475 6.49417C60.5486 7.69704 61.2234 9.32723 61.224 11.0271V39.1827C61.2288 40.6846 60.7045 42.1402 59.7431 43.2941C58.9813 44.2085 57.9837 44.8871 56.8669 45.2621V46.5405C56.8658 47.9588 56.302 49.3186 55.2993 50.3217C54.3912 51.2302 53.1901 51.7788 51.9178 51.8754V53.8822C51.9273 56.7082 51.1496 59.4811 49.6719 61.89C48.1942 64.2989 46.0748 66.2488 43.5513 67.5211L41.7049 68.4594C41.5592 68.5359 41.4373 68.6506 41.3522 68.7914C41.2671 68.9321 41.2222 69.0934 41.2222 69.2578C41.2222 69.4223 41.2671 69.5836 41.3522 69.7243C41.4373 69.865 41.5592 69.9798 41.7049 70.0562L47.4735 73.1092C47.7591 73.2606 47.9859 73.5031 48.1178 73.7982C48.2496 74.0934 48.279 74.4242 48.2012 74.7379C48.1234 75.0517 47.9428 75.3304 47.6884 75.5297C47.4339 75.729 47.12 75.8375 46.7967 75.8378H15.2162C14.8936 75.8363 14.5807 75.7271 14.3272 75.5276C14.0737 75.3281 13.894 75.0497 13.8167 74.7365C13.7393 74.4233 13.7687 74.0932 13.9003 73.7986C14.0318 73.504 14.2579 73.2618 14.5427 73.1103L20.3221 70.0573C20.4673 69.9795 20.5883 69.8635 20.6722 69.7218C20.756 69.5801 20.7995 69.4181 20.7978 69.2535C20.7961 69.0888 20.7494 68.9278 20.6627 68.7878C20.576 68.6478 20.4526 68.5343 20.3059 68.4594L18.4594 67.5211C15.9358 66.2488 13.8164 64.299 12.3385 61.8901C10.8606 59.4812 10.0826 56.7083 10.0919 53.8822V51.8754C8.81956 51.7789 7.61838 51.2303 6.71014 50.3217C5.70748 49.3186 5.14372 47.9588 5.14258 46.5405V45.263C4.02416 44.8889 3.02471 44.2106 2.26119 43.2961C1.29786 42.1422 0.771659 40.6859 0.774917 39.1827V11.0271C0.776635 9.3259 1.45318 7.6949 2.65608 6.492C3.85898 5.2891 5.48997 4.61256 7.19113 4.61084H19.1231C22.4983 1.80662 26.5918 0.162109 30.9998 0.162109C35.4078 0.162109 39.503 1.80662 42.8804 4.61084ZM16.8684 6.773H7.19113C6.06324 6.77415 4.98187 7.22271 4.18433 8.02025C3.38679 8.81779 2.93822 9.89916 2.93708 11.0271V39.1827C2.93426 40.1781 3.28201 41.1428 3.91933 41.9074C4.32989 42.4 4.84373 42.7893 5.41929 43.0511C5.68008 42.2718 6.11923 41.5555 6.71128 40.9636C7.71411 39.9609 9.0737 39.3971 10.4918 39.3956H13.7641C11.3265 35.0915 10.054 30.2124 10.0906 25.2432C10.0906 17.9433 12.7042 11.361 16.8684 6.773ZM8.23845 42.4918C8.83591 41.8946 9.64588 41.5587 10.4907 41.5578H51.5188C52.3634 41.5589 53.1731 41.895 53.7703 42.4922C54.3676 43.0894 54.7036 43.8991 54.7047 44.7437V46.5405C54.7036 47.3851 54.3676 48.1948 53.7703 48.792C53.1731 49.3893 52.3634 49.7253 51.5188 49.7264H10.4907C9.64588 49.7256 8.83591 49.3897 8.23845 48.7924C7.64098 48.1952 7.30481 47.3853 7.30366 46.5405V44.7437C7.30481 43.8989 7.64098 43.0891 8.23845 42.4918ZM43.9167 73.6757H18.0973L21.3276 71.9676C21.8227 71.7046 22.2361 71.3108 22.5229 70.8291C22.8097 70.3474 22.9588 69.7962 22.954 69.2356C22.9492 68.675 22.7907 68.1265 22.4957 67.6498C22.2007 67.173 21.7806 66.7864 21.2811 66.5319L19.4324 65.5935C17.2667 64.5002 15.448 62.8256 14.1802 60.7572C12.9124 58.6887 12.2454 56.3082 12.254 53.8822V51.8908H49.7567V53.8822C49.765 56.3088 49.0973 58.6898 47.8284 60.7583C46.5596 62.8268 44.7398 64.5011 42.573 65.5935L40.7211 66.534C40.2226 66.7901 39.8039 67.178 39.5106 67.6555C39.2173 68.133 39.0605 68.6818 39.0574 69.2422C39.0543 69.8025 39.2049 70.353 39.4929 70.8338C39.7809 71.3145 40.1952 71.707 40.6908 71.9686L43.9167 73.6757Z" fill="#E1C167"/>
</svg>
