<svg width="59" height="72" viewBox="0 0 59 72" fill="none" xmlns="http://www.w3.org/2000/svg">
<path fill-rule="evenodd" clip-rule="evenodd" d="M50.2925 6.36644C53.9502 9.90486 56.065 14.7429 56.1781 19.8308C56.449 19.9521 56.679 20.1492 56.8405 20.3982C57.0019 20.6473 57.0878 20.9378 57.0879 21.2346V26.1846C57.0879 26.5927 56.9258 26.984 56.6373 27.2725C56.3488 27.561 55.9575 27.7231 55.5494 27.7231H47.5762C47.1682 27.7231 46.7769 27.561 46.4884 27.2725C46.1998 26.984 46.0378 26.5927 46.0378 26.1846V21.2351C46.0378 20.9554 46.1142 20.6811 46.2585 20.4415C46.4028 20.202 46.6098 20.0063 46.857 19.8756C46.525 17.4093 45.2683 15.1614 43.3412 13.587C41.4142 12.0125 38.9608 11.2292 36.4779 11.3956C33.995 11.562 31.6681 12.6656 29.9684 14.4832C28.2686 16.3007 27.3231 18.6962 27.3231 21.1846V45.5939H27.4854C28.6432 45.5952 29.7531 46.0557 30.5718 46.8744C31.3904 47.6931 31.8509 48.803 31.8522 49.9608V69.5385C31.8522 69.9465 31.6901 70.3378 31.4016 70.6263C31.1131 70.9149 30.7218 71.077 30.3138 71.077H14.733C14.325 71.077 13.9336 70.9149 13.6451 70.6263C13.3566 70.3378 13.1945 69.9465 13.1945 69.5385V61.1082H5.45283C4.8665 61.1116 4.28527 60.9991 3.74258 60.7771C3.19988 60.5551 2.70644 60.228 2.29061 59.8147C1.87479 59.4013 1.5448 58.9098 1.31962 58.3684C1.09444 57.827 0.978516 57.2464 0.978516 56.6601C0.978516 56.0738 1.09444 55.4932 1.31962 54.9518C1.5448 54.4104 1.87479 53.9189 2.29061 53.5055C2.70644 53.0922 3.19988 52.7651 3.74258 52.5431C4.28527 52.3211 4.8665 52.2086 5.45283 52.212H13.1945V49.9608C13.1959 48.8101 13.6509 47.7064 14.4609 46.8891C15.2708 46.0718 16.3704 45.6068 17.521 45.5949V20.2536C17.5227 15.1644 19.5312 10.2813 23.1106 6.66371C26.6901 3.04614 31.5517 0.98601 36.6405 0.930357C41.7293 0.874703 46.6348 2.82802 50.2925 6.36644ZM4.48373 55.691C4.22666 55.948 4.08205 56.2965 4.0816 56.66C4.08201 57.0236 4.2266 57.3721 4.48367 57.6292C4.74074 57.8862 5.08928 58.0308 5.45283 58.0313H20.7805C20.9618 58.0332 21.1417 57.9991 21.3097 57.9311C21.4778 57.863 21.6306 57.7623 21.7595 57.6348C21.8884 57.5073 21.9907 57.3555 22.0605 57.1882C22.1303 57.0209 22.1663 56.8414 22.1663 56.6601C22.1663 56.4788 22.1303 56.2993 22.0605 56.132C21.9907 55.9647 21.8884 55.8129 21.7595 55.6854C21.6306 55.5579 21.4778 55.4572 21.3097 55.3891C21.1417 55.3211 20.9618 55.287 20.7805 55.2889H5.45283C5.08931 55.2894 4.74079 55.4339 4.48373 55.691ZM28.3971 49.0491C28.1553 48.8073 27.8274 48.6712 27.4854 48.6708H17.5613C17.2193 48.6712 16.8914 48.8073 16.6496 49.0491C16.4078 49.2909 16.2718 49.6188 16.2714 49.9608V52.2116H20.7805C21.3669 52.2081 21.9481 52.3206 22.4908 52.5426C23.0335 52.7646 23.5269 53.0917 23.9427 53.5051C24.3586 53.9185 24.6886 54.41 24.9137 54.9514C25.1389 55.4927 25.2548 56.0733 25.2548 56.6596C25.2548 57.246 25.1389 57.8265 24.9137 58.3679C24.6886 58.9093 24.3586 59.4008 23.9427 59.8142C23.5269 60.2276 23.0335 60.5547 22.4908 60.7767C21.9481 60.9987 21.3669 61.1112 20.7805 61.1077H16.2714V68H28.7753V49.9608C28.7749 49.6188 28.6389 49.2909 28.3971 49.0491ZM28.0255 12.0748C30.4418 9.65839 33.718 8.2992 37.1353 8.29541C40.2924 8.29929 43.3386 9.46012 45.6977 11.5583C48.0567 13.6565 49.565 16.5465 49.9371 19.6816H52.909C52.9714 19.6819 53.0338 19.6861 53.0958 19.694C52.9497 15.4337 51.1359 11.4013 48.045 8.4656C44.9541 5.52993 40.8337 3.92603 36.5715 3.9995C32.3093 4.07296 28.2466 5.81791 25.2587 8.85836C22.2708 11.8988 20.597 15.9914 20.5979 20.2542V45.5939H24.2462V21.1846C24.25 17.7674 25.6091 14.4912 28.0255 12.0748ZM49.115 24.6462H54.0113V22.7731H49.115V24.6462ZM49.8772 31.6304C49.8772 32.48 49.1884 33.1688 48.3388 33.1688C47.4891 33.1688 46.8003 32.48 46.8003 31.6304C46.8003 30.7807 47.4891 30.0919 48.3388 30.0919C49.1884 30.0919 49.8772 30.7807 49.8772 31.6304ZM47.6722 38.9049C48.5219 38.9049 49.2107 38.2161 49.2107 37.3665C49.2107 36.5168 48.5219 35.828 47.6722 35.828C46.8226 35.828 46.1338 36.5168 46.1338 37.3665C46.1338 38.2161 46.8226 38.9049 47.6722 38.9049ZM48.5432 43.1038C48.5432 43.9534 47.8544 44.6422 47.0048 44.6422C46.1551 44.6422 45.4663 43.9534 45.4663 43.1038C45.4663 42.2541 46.1551 41.5653 47.0048 41.5653C47.8544 41.5653 48.5432 42.2541 48.5432 43.1038ZM46.3368 50.3787C47.1865 50.3787 47.8753 49.6899 47.8753 48.8402C47.8753 47.9906 47.1865 47.3018 46.3368 47.3018C45.4871 47.3018 44.7983 47.9906 44.7983 48.8402C44.7983 49.6899 45.4871 50.3787 46.3368 50.3787ZM47.2078 54.5765C47.2078 55.4262 46.519 56.115 45.6693 56.115C44.8197 56.115 44.1309 55.4262 44.1309 54.5765C44.1309 53.7269 44.8197 53.0381 45.6693 53.0381C46.519 53.0381 47.2078 53.7269 47.2078 54.5765ZM51.558 56.115C52.4077 56.115 53.0965 55.4262 53.0965 54.5765C53.0965 53.7269 52.4077 53.0381 51.558 53.0381C50.7083 53.0381 50.0195 53.7269 50.0195 54.5765C50.0195 55.4262 50.7083 56.115 51.558 56.115ZM58.9954 54.5765C58.9954 55.4262 58.3066 56.115 57.4569 56.115C56.6073 56.115 55.9185 55.4262 55.9185 54.5765C55.9185 53.7269 56.6073 53.0381 57.4569 53.0381C58.3066 53.0381 58.9954 53.7269 58.9954 54.5765ZM51.558 50.3787C52.4077 50.3787 53.0965 49.6899 53.0965 48.8402C53.0965 47.9906 52.4077 47.3018 51.558 47.3018C50.7083 47.3018 50.0195 47.9906 50.0195 48.8402C50.0195 49.6899 50.7083 50.3787 51.558 50.3787ZM58.3279 48.8402C58.3279 49.6899 57.6391 50.3787 56.7894 50.3787C55.9398 50.3787 55.251 49.6899 55.251 48.8402C55.251 47.9906 55.9398 47.3018 56.7894 47.3018C57.6391 47.3018 58.3279 47.9906 58.3279 48.8402ZM51.558 44.6422C52.4077 44.6422 53.0965 43.9534 53.0965 43.1038C53.0965 42.2541 52.4077 41.5653 51.558 41.5653C50.7083 41.5653 50.0195 42.2541 50.0195 43.1038C50.0195 43.9534 50.7083 44.6422 51.558 44.6422ZM57.6599 43.1038C57.6599 43.9534 56.9711 44.6422 56.1215 44.6422C55.2718 44.6422 54.583 43.9534 54.583 43.1038C54.583 42.2541 55.2718 41.5653 56.1215 41.5653C56.9711 41.5653 57.6599 42.2541 57.6599 43.1038ZM51.558 38.9049C52.4077 38.9049 53.0965 38.2161 53.0965 37.3665C53.0965 36.5168 52.4077 35.828 51.558 35.828C50.7083 35.828 50.0195 36.5168 50.0195 37.3665C50.0195 38.2161 50.7083 38.9049 51.558 38.9049ZM56.9925 37.3665C56.9925 38.2161 56.3037 38.9049 55.454 38.9049C54.6043 38.9049 53.9155 38.2161 53.9155 37.3665C53.9155 36.5168 54.6043 35.828 55.454 35.828C56.3037 35.828 56.9925 36.5168 56.9925 37.3665ZM51.5585 33.1688C52.4081 33.1688 53.0969 32.48 53.0969 31.6304C53.0969 30.7807 52.4081 30.0919 51.5585 30.0919C50.7088 30.0919 50.02 30.7807 50.02 31.6304C50.02 32.48 50.7088 33.1688 51.5585 33.1688ZM56.3264 31.6304C56.3264 32.48 55.6376 33.1688 54.788 33.1688C53.9383 33.1688 53.2495 32.48 53.2495 31.6304C53.2495 30.7807 53.9383 30.0919 54.788 30.0919C55.6376 30.0919 56.3264 30.7807 56.3264 31.6304Z" fill="#E1C167"/>
</svg>
