<svg width="30" height="30" viewBox="0 0 30 30" fill="none" xmlns="http://www.w3.org/2000/svg">
<path d="M11.7189 16.8222H3.75016C2.99196 16.8222 2.30758 17.279 2.01813 17.9794C1.87589 18.3219 1.83859 18.699 1.91095 19.0628C1.98332 19.4265 2.16209 19.7606 2.42459 20.0226L4.18592 21.7839L0.549592 25.4208C-0.182244 26.1532 -0.18283 27.3398 0.549534 28.0722L1.87492 29.3976C2.60735 30.13 3.79446 30.13 4.52688 29.3976L8.16321 25.7607L9.92453 27.5221C10.1867 27.7843 10.5207 27.963 10.8844 28.0353C11.2481 28.1077 11.6251 28.0706 11.9677 27.9286C12.3103 27.7868 12.6032 27.5465 12.8092 27.2382C13.0152 26.9299 13.1251 26.5674 13.1249 26.1965V18.2284C13.1252 17.5019 12.4982 16.8222 11.7189 16.8222ZM18.2814 13.1249H26.1974C26.9556 13.1249 27.64 12.6681 27.9295 11.9677C28.0717 11.6252 28.109 11.2481 28.0366 10.8844C27.9643 10.5206 27.7855 10.1865 27.523 9.92454L25.7617 8.16321L29.398 4.52629C30.1304 3.79387 30.1304 2.60676 29.398 1.87434L28.0726 0.54895C27.3402 -0.183472 26.1531 -0.183472 25.4206 0.54895L21.7843 4.18586L20.023 2.42454C19.4865 1.88893 18.683 1.73079 17.9798 2.01807C17.3322 2.30793 16.8752 2.99172 16.8752 3.74993V11.6659C16.8752 12.498 17.5021 13.1249 18.2814 13.1249Z" fill="#E1C167"/>
</svg>
