<svg width="40" height="40" viewBox="0 0 40 40" fill="none" xmlns="http://www.w3.org/2000/svg">
<g clip-path="url(#clip0_17_167)">
<path d="M15.625 22.4296H5.00005C3.98911 22.4296 3.07661 23.0387 2.69067 23.9726C2.50102 24.4293 2.45129 24.932 2.54777 25.417C2.64426 25.902 2.88262 26.3474 3.23263 26.6968L5.58106 29.0452L0.732627 33.8944C-0.243154 34.871 -0.243936 36.453 0.732549 37.4296L2.49974 39.1968C3.4763 40.1733 5.05911 40.1733 6.03567 39.1969L10.8841 34.3476L13.2325 36.6961C13.5821 37.0458 14.0275 37.284 14.5124 37.3805C14.9973 37.4769 15.5 37.4274 15.9568 37.2381C16.4136 37.0491 16.8041 36.7287 17.0788 36.3176C17.3535 35.9065 17.5 35.4232 17.4997 34.9287V24.3046C17.5 23.3358 16.6641 22.4296 15.625 22.4296ZM24.375 17.4999H34.9297C35.9407 17.4999 36.8532 16.8908 37.2391 15.9569C37.4288 15.5002 37.4785 14.9975 37.382 14.5125C37.2855 14.0275 37.0472 13.5821 36.6972 13.2327L34.3487 10.8843L39.1972 6.03506C40.1737 5.0585 40.1737 3.47568 39.1972 2.49912L37.43 0.731934C36.4534 -0.244629 34.8706 -0.244629 33.894 0.731934L29.0456 5.58115L26.6972 3.23272C25.9818 2.51857 24.9104 2.30771 23.9729 2.69076C23.1094 3.07725 22.5 3.98896 22.5 4.9999V15.5546C22.5 16.664 23.336 17.4999 24.375 17.4999Z" fill="white"/>
</g>
<defs>
<clipPath id="clip0_17_167">
<rect width="40" height="40" fill="white"/>
</clipPath>
</defs>
</svg>
