<svg width="34" height="31" viewBox="0 0 34 31" fill="none" xmlns="http://www.w3.org/2000/svg">
<path d="M23.667 15.6667C23.667 12.8817 21.4487 10.6667 18.667 10.6667C15.8853 10.6667 13.667 12.8817 13.667 15.6667C13.667 18.4517 15.8853 20.6667 18.667 20.6667C21.4487 20.6667 23.667 18.4517 23.667 15.6667Z" fill="#E1C167"/>
<path d="M15.6435 0.97175C13.7241 1.36449 11.901 2.13191 10.2785 3.23008C8.6823 4.30912 7.30753 5.68388 6.2285 7.28008C5.13071 8.90276 4.36332 10.7258 3.97016 12.6451C3.76571 13.6533 3.66518 14.6797 3.67016 15.7084H0.333496L5.3335 22.3334L10.3335 15.7084H7.0035C7.00016 14.9017 7.07683 14.0951 7.23683 13.3167C7.54251 11.825 8.13885 10.4081 8.99183 9.14675C9.83057 7.90279 10.9012 6.83215 12.1452 5.99341C14.0705 4.6912 16.3424 3.9968 18.6668 4.00008C20.2266 4.00037 21.7707 4.31201 23.2085 4.91675C23.9011 5.21085 24.5641 5.57025 25.1885 5.99008C25.8092 6.41157 26.3889 6.89033 26.9202 7.42008C28.5305 9.03342 29.6351 11.0816 30.0985 13.3134C30.4119 14.8655 30.4119 16.4646 30.0985 18.0167C29.7925 19.5092 29.1956 20.9267 28.3418 22.1884C27.5038 23.4309 26.4344 24.5004 25.1918 25.3384C23.2644 26.6392 20.9921 27.3339 18.6668 27.3334V30.6667C21.6563 30.665 24.5774 29.7719 27.0568 28.1017C28.6504 27.022 30.0237 25.6486 31.1035 24.0551C32.7793 21.579 33.6724 18.6566 33.6668 15.6667C33.6667 14.6513 33.5646 13.6384 33.3618 12.6434C32.9658 10.7255 32.1986 8.90358 31.1035 7.28008C30.5664 6.48295 29.9529 5.74 29.2718 5.06175C28.5908 4.38256 27.8475 3.76877 27.0518 3.22842C24.5765 1.55404 21.6553 0.661609 18.6668 0.666749C17.6514 0.666837 16.6385 0.769018 15.6435 0.97175V0.97175Z" fill="#E1C167"/>
</svg>
