<svg width="25" height="26" viewBox="0 0 25 26" fill="none" xmlns="http://www.w3.org/2000/svg">
<path d="M4.87492 16.75C5.96824 16.7468 7.0202 16.3317 7.82117 15.5875L15.6462 20.0588C15.384 21.0833 15.4996 22.1679 15.9717 23.1142C16.4439 24.0604 17.2411 24.805 18.2174 25.2115C19.1936 25.618 20.2837 25.6594 21.2879 25.3279C22.2921 24.9964 23.1434 24.3144 23.6858 23.4066C24.2283 22.4988 24.4257 21.426 24.2418 20.3846C24.0579 19.3432 23.5051 18.4028 22.6846 17.7357C21.8641 17.0685 20.8307 16.7192 19.7737 16.7517C18.7167 16.7842 17.7067 17.1963 16.9287 17.9125L9.10367 13.4413C9.18617 13.1288 9.23117 12.805 9.23867 12.4813L16.9262 8.08752C17.6664 8.76098 18.6157 9.1594 19.6149 9.21591C20.614 9.27243 21.6022 8.98361 22.4136 8.39791C23.2251 7.81221 23.8104 6.96527 24.0714 5.99917C24.3325 5.03307 24.2533 4.00658 23.8472 3.09193C23.4411 2.17728 22.7329 1.43011 21.8412 0.975761C20.9495 0.521415 19.9288 0.387539 18.9501 0.596594C17.9714 0.805648 17.0944 1.34491 16.4662 2.12392C15.838 2.90293 15.4968 3.87428 15.4999 4.87502C15.5049 5.23502 15.5537 5.59377 15.6462 5.94127L8.54117 10C8.12915 9.36259 7.55838 8.84333 6.88495 8.49323C6.21151 8.14314 5.45859 7.97427 4.70014 8.0032C3.9417 8.03214 3.20383 8.25789 2.55903 8.65828C1.91423 9.05867 1.38469 9.61992 1.02243 10.2869C0.660168 10.9538 0.477653 11.7036 0.492817 12.4624C0.50798 13.2213 0.7203 13.9631 1.10892 14.6151C1.49753 15.267 2.04907 15.8067 2.70935 16.181C3.36963 16.5553 4.11593 16.7514 4.87492 16.75V16.75Z" fill="#E1C167"/>
</svg>
