<svg width="68" height="76" viewBox="0 0 68 76" fill="none" xmlns="http://www.w3.org/2000/svg">
<path fill-rule="evenodd" clip-rule="evenodd" d="M1.91363 32.5383C2.8866 32.5383 11.5817 32.2983 15.6434 23.9805L15.7515 23.7556V20.1622H40.8694V25.5385C40.7188 25.6622 40.5736 25.7937 40.4346 25.9327C39.4862 26.8811 38.8884 28.1146 38.7245 29.4317C35.2776 29.8596 32.0497 31.4236 29.568 33.9053C26.8591 36.6142 25.2435 40.2125 25.0057 44.0142C24.3462 44.1834 23.7377 44.5269 23.248 45.0165C22.5293 45.7353 22.1255 46.7101 22.1255 47.7265C22.1255 48.7429 22.5293 49.7177 23.248 50.4364C23.9667 51.1551 24.9415 51.5589 25.9579 51.5589H63.399C64.4154 51.5589 65.3902 51.1551 66.109 50.4364C66.8277 49.7177 67.2314 48.7429 67.2314 47.7265C67.2314 46.7101 66.8277 45.7353 66.109 45.0165C65.6184 44.526 65.0087 44.1822 64.3478 44.0133C64.1099 40.2123 62.4946 36.6147 59.7863 33.906C57.3032 31.4225 54.0726 29.8578 50.623 29.431C50.459 28.1141 49.8612 26.8809 48.913 25.9327C48.7739 25.7936 48.6287 25.6621 48.478 25.5383V18.9632C48.4763 17.2627 47.8 15.6322 46.5975 14.4297C45.395 13.2272 43.7646 12.5509 42.064 12.5492H15.7515V8.94481L15.6434 8.71995C11.5742 0.40211 2.89092 0.162109 1.91363 0.162109H0.83255L0.767685 1.30697V32.4745L1.91363 32.5383ZM46.3159 24.406C45.7864 24.2552 45.2341 24.1768 44.6738 24.1768C44.1134 24.1768 43.5611 24.2552 43.0315 24.4061V18H15.7537V14.7114H42.064C43.1913 14.7125 44.2721 15.1608 45.0693 15.958C45.8664 16.7551 46.3147 17.8359 46.3159 18.9632V24.406ZM13.5893 23.2518C12.5558 25.2348 11.0363 26.9231 9.17287 28.1591C7.30941 29.395 5.16292 30.1381 2.93417 30.3189V2.38157C5.16264 2.56331 7.30872 3.30681 9.17201 4.54264C11.0353 5.77847 12.555 7.46632 13.5893 9.4486V23.2518ZM47.383 27.4632C47.8953 27.9755 48.2477 28.6177 48.4083 29.3124H40.9414C41.1036 28.6145 41.4577 27.9694 41.9716 27.4541C42.3261 27.0989 42.7475 26.8175 43.2114 26.6262C43.6753 26.4349 44.1726 26.3374 44.6744 26.3395C45.6904 26.3406 46.6646 26.7447 47.383 27.4632ZM27.1807 43.894C27.4565 40.5129 28.9935 37.359 31.4866 35.0584C33.98 32.7575 37.2473 31.4782 40.64 31.4745H48.7168C52.1094 31.4785 55.3764 32.7579 57.8695 35.0588C60.3624 37.3594 61.8992 40.5131 62.1751 43.894H27.1807ZM63.399 46.0573C63.842 46.0573 64.2668 46.2333 64.5801 46.5465C64.8933 46.8597 65.0693 47.2846 65.0693 47.7276C65.0693 48.1705 64.8933 48.5954 64.5801 48.9086C64.2668 49.2219 63.842 49.3978 63.399 49.3978H25.9579C25.5149 49.3978 25.0901 49.2219 24.7769 48.9086C24.4636 48.5954 24.2877 48.1705 24.2877 47.7276C24.2877 47.2846 24.4636 46.8597 24.7769 46.5465C25.0901 46.2333 25.5149 46.0573 25.9579 46.0573H63.399ZM27.3481 63.5471C27.6348 63.5471 27.9098 63.4332 28.1126 63.2304C28.3153 63.0277 28.4292 62.7527 28.4292 62.466V54.6487C28.4292 54.362 28.3153 54.087 28.1126 53.8843C27.9098 53.6815 27.6348 53.5676 27.3481 53.5676C27.0614 53.5676 26.7864 53.6815 26.5837 53.8843C26.3809 54.087 26.267 54.362 26.267 54.6487V62.4671C26.2673 62.7536 26.3814 63.0283 26.5841 63.2308C26.7868 63.4333 27.0616 63.5471 27.3481 63.5471ZM28.1126 72.4401C27.9098 72.6429 27.6348 72.7568 27.3481 72.7568C27.0614 72.7568 26.7864 72.6429 26.5837 72.4401C26.3809 72.2374 26.267 71.9624 26.267 71.6757V67.5016C26.267 67.2149 26.3809 66.9399 26.5837 66.7372C26.7864 66.5344 27.0614 66.4205 27.3481 66.4205C27.6348 66.4205 27.9098 66.5344 28.1126 66.7372C28.3153 66.9399 28.4292 67.2149 28.4292 67.5016V71.6757C28.4292 71.9624 28.3153 72.2374 28.1126 72.4401ZM32.3008 58.2952C32.5875 58.2952 32.8624 58.1813 33.0652 57.9785C33.2679 57.7758 33.3818 57.5008 33.3818 57.2141V54.6487C33.3818 54.362 33.2679 54.087 33.0652 53.8843C32.8624 53.6815 32.5875 53.5676 32.3008 53.5676C32.014 53.5676 31.7391 53.6815 31.5363 53.8843C31.3336 54.087 31.2197 54.362 31.2197 54.6487V57.2163C31.2202 57.5026 31.3344 57.777 31.5371 57.9793C31.7398 58.1816 32.0144 58.2952 32.3008 58.2952ZM33.0652 69.9558C32.8624 70.1586 32.5875 70.2725 32.3008 70.2725C32.014 70.2725 31.7391 70.1586 31.5363 69.9558C31.3336 69.7531 31.2197 69.4781 31.2197 69.1914V61.0908C31.2197 60.8041 31.3336 60.5291 31.5363 60.3264C31.7391 60.1237 32.014 60.0098 32.3008 60.0098C32.5875 60.0098 32.8624 60.1237 33.0652 60.3264C33.2679 60.5291 33.3818 60.8041 33.3818 61.0908V69.1914C33.3818 69.4781 33.2679 69.7531 33.0652 69.9558ZM32.3008 75.8379C32.5875 75.8379 32.8624 75.724 33.0652 75.5212C33.2679 75.3185 33.3818 75.0435 33.3818 74.7568V73.1665C33.3818 72.8798 33.2679 72.6048 33.0652 72.4021C32.8624 72.1993 32.5875 72.0854 32.3008 72.0854C32.014 72.0854 31.7391 72.1993 31.5363 72.4021C31.3336 72.6048 31.2197 72.8798 31.2197 73.1665V74.7568C31.2197 75.0435 31.3336 75.3185 31.5363 75.5212C31.7391 75.724 32.014 75.8379 32.3008 75.8379ZM38.0154 63.2304C37.8126 63.4332 37.5377 63.5471 37.2509 63.5471C36.9644 63.5471 36.6896 63.4333 36.4869 63.2308C36.2842 63.0283 36.1702 62.7536 36.1699 62.4671V54.6487C36.1699 54.362 36.2838 54.087 36.4865 53.8843C36.6893 53.6815 36.9642 53.5676 37.2509 53.5676C37.5377 53.5676 37.8126 53.6815 38.0154 53.8843C38.2181 54.087 38.332 54.362 38.332 54.6487V62.466C38.332 62.7527 38.2181 63.0277 38.0154 63.2304ZM37.2509 72.7568C37.5377 72.7568 37.8126 72.6429 38.0154 72.4401C38.2181 72.2374 38.332 71.9624 38.332 71.6757V67.5016C38.332 67.2149 38.2181 66.9399 38.0154 66.7372C37.8126 66.5344 37.5377 66.4205 37.2509 66.4205C36.9642 66.4205 36.6893 66.5344 36.4865 66.7372C36.2838 66.9399 36.1699 67.2149 36.1699 67.5016V71.6757C36.1699 71.9624 36.2838 72.2374 36.4865 72.4401C36.6893 72.6429 36.9642 72.7568 37.2509 72.7568ZM42.9675 57.9785C42.7648 58.1813 42.4898 58.2952 42.2031 58.2952C41.9168 58.2952 41.6421 58.1816 41.4394 57.9793C41.2367 57.777 41.1226 57.5026 41.122 57.2163V54.6487C41.122 54.362 41.2359 54.087 41.4387 53.8843C41.6414 53.6815 41.9164 53.5676 42.2031 53.5676C42.4898 53.5676 42.7648 53.6815 42.9675 53.8843C43.1703 54.087 43.2842 54.362 43.2842 54.6487V57.2141C43.2842 57.5008 43.1703 57.7758 42.9675 57.9785ZM42.2031 70.2725C42.4898 70.2725 42.7648 70.1586 42.9675 69.9558C43.1703 69.7531 43.2842 69.4781 43.2842 69.1914V61.0908C43.2842 60.8041 43.1703 60.5291 42.9675 60.3264C42.7648 60.1237 42.4898 60.0098 42.2031 60.0098C41.9164 60.0098 41.6414 60.1237 41.4387 60.3264C41.2359 60.5291 41.122 60.8041 41.122 61.0908V69.1914C41.122 69.4781 41.2359 69.7531 41.4387 69.9558C41.6414 70.1586 41.9164 70.2725 42.2031 70.2725ZM42.9675 75.5212C42.7648 75.724 42.4898 75.8379 42.2031 75.8379C41.9164 75.8379 41.6414 75.724 41.4387 75.5212C41.2359 75.3185 41.122 75.0435 41.122 74.7568V73.1665C41.122 72.8798 41.2359 72.6048 41.4387 72.4021C41.6414 72.1993 41.9164 72.0854 42.2031 72.0854C42.4898 72.0854 42.7648 72.1993 42.9675 72.4021C43.1703 72.6048 43.2842 72.8798 43.2842 73.1665V74.7568C43.2842 75.0435 43.1703 75.3185 42.9675 75.5212ZM47.1533 63.5471C47.44 63.5471 47.715 63.4332 47.9177 63.2304C48.1205 63.0277 48.2344 62.7527 48.2344 62.466V54.6487C48.2344 54.362 48.1205 54.087 47.9177 53.8843C47.715 53.6815 47.44 53.5676 47.1533 53.5676C46.8666 53.5676 46.5916 53.6815 46.3889 53.8843C46.1861 54.087 46.0722 54.362 46.0722 54.6487V62.4671C46.0725 62.7536 46.1865 63.0283 46.3892 63.2308C46.5919 63.4333 46.8668 63.5471 47.1533 63.5471ZM47.9177 72.4401C47.715 72.6429 47.44 72.7568 47.1533 72.7568C46.8666 72.7568 46.5916 72.6429 46.3889 72.4401C46.1861 72.2374 46.0722 71.9624 46.0722 71.6757V67.5016C46.0722 67.2149 46.1861 66.9399 46.3889 66.7372C46.5916 66.5344 46.8666 66.4205 47.1533 66.4205C47.44 66.4205 47.715 66.5344 47.9177 66.7372C48.1205 66.9399 48.2344 67.2149 48.2344 67.5016V71.6757C48.2344 71.9624 48.1205 72.2374 47.9177 72.4401ZM52.1059 58.2952C52.3927 58.2952 52.6676 58.1813 52.8704 57.9785C53.0731 57.7758 53.187 57.5008 53.187 57.2141V54.6487C53.187 54.362 53.0731 54.087 52.8704 53.8843C52.6676 53.6815 52.3927 53.5676 52.1059 53.5676C51.8192 53.5676 51.5442 53.6815 51.3415 53.8843C51.1388 54.087 51.0248 54.362 51.0248 54.6487V57.2163C51.0254 57.5026 51.1396 57.777 51.3423 57.9793C51.5449 58.1816 51.8196 58.2952 52.1059 58.2952ZM52.8704 69.9558C52.6676 70.1586 52.3927 70.2725 52.1059 70.2725C51.8192 70.2725 51.5442 70.1586 51.3415 69.9558C51.1388 69.7531 51.0248 69.4781 51.0248 69.1914V61.0908C51.0248 60.8041 51.1388 60.5291 51.3415 60.3264C51.5442 60.1237 51.8192 60.0098 52.1059 60.0098C52.3927 60.0098 52.6676 60.1237 52.8704 60.3264C53.0731 60.5291 53.187 60.8041 53.187 61.0908V69.1914C53.187 69.4781 53.0731 69.7531 52.8704 69.9558ZM52.1059 75.8379C52.3927 75.8379 52.6676 75.724 52.8704 75.5212C53.0731 75.3185 53.187 75.0435 53.187 74.7568V73.1665C53.187 72.8798 53.0731 72.6048 52.8704 72.4021C52.6676 72.1993 52.3927 72.0854 52.1059 72.0854C51.8192 72.0854 51.5442 72.1993 51.3415 72.4021C51.1388 72.6048 51.0248 72.8798 51.0248 73.1665V74.7568C51.0248 75.0435 51.1388 75.3185 51.3415 75.5212C51.5442 75.724 51.8192 75.8379 52.1059 75.8379ZM57.8206 63.2304C57.6178 63.4332 57.3428 63.5471 57.0561 63.5471C56.7696 63.5471 56.4948 63.4333 56.2921 63.2308C56.0894 63.0283 55.9753 62.7536 55.975 62.4671V54.6487C55.975 54.362 56.0889 54.087 56.2917 53.8843C56.4944 53.6815 56.7694 53.5676 57.0561 53.5676C57.3428 53.5676 57.6178 53.6815 57.8206 53.8843C58.0233 54.087 58.1372 54.362 58.1372 54.6487V62.466C58.1372 62.7527 58.0233 63.0277 57.8206 63.2304ZM57.0561 72.7568C57.3428 72.7568 57.6178 72.6429 57.8206 72.4401C58.0233 72.2374 58.1372 71.9624 58.1372 71.6757V67.5016C58.1372 67.2149 58.0233 66.9399 57.8206 66.7372C57.6178 66.5344 57.3428 66.4205 57.0561 66.4205C56.7694 66.4205 56.4944 66.5344 56.2917 66.7372C56.0889 66.9399 55.975 67.2149 55.975 67.5016V71.6757C55.975 71.9624 56.0889 72.2374 56.2917 72.4401C56.4944 72.6429 56.7694 72.7568 57.0561 72.7568ZM62.7732 57.9785C62.5705 58.1813 62.2955 58.2952 62.0088 58.2952C61.7224 58.2952 61.4478 58.1816 61.2451 57.9793C61.0424 57.777 60.9283 57.5026 60.9277 57.2163V54.6487C60.9277 54.362 61.0416 54.087 61.2443 53.8843C61.4471 53.6815 61.722 53.5676 62.0088 53.5676C62.2955 53.5676 62.5705 53.6815 62.7732 53.8843C62.9759 54.087 63.0898 54.362 63.0898 54.6487V57.2141C63.0898 57.5008 62.9759 57.7758 62.7732 57.9785ZM62.0088 70.2725C62.2955 70.2725 62.5705 70.1586 62.7732 69.9558C62.9759 69.7531 63.0898 69.4781 63.0898 69.1914V61.0908C63.0898 60.8041 62.9759 60.5291 62.7732 60.3264C62.5705 60.1237 62.2955 60.0098 62.0088 60.0098C61.722 60.0098 61.4471 60.1237 61.2443 60.3264C61.0416 60.5291 60.9277 60.8041 60.9277 61.0908V69.1914C60.9277 69.4781 61.0416 69.7531 61.2443 69.9558C61.4471 70.1586 61.722 70.2725 62.0088 70.2725ZM62.7732 75.5212C62.5705 75.724 62.2955 75.8379 62.0088 75.8379C61.722 75.8379 61.4471 75.724 61.2443 75.5212C61.0416 75.3185 60.9277 75.0435 60.9277 74.7568V73.1665C60.9277 72.8798 61.0416 72.6048 61.2443 72.4021C61.4471 72.1993 61.722 72.0854 62.0088 72.0854C62.2955 72.0854 62.5705 72.1993 62.7732 72.4021C62.9759 72.6048 63.0898 72.8798 63.0898 73.1665V74.7568C63.0898 75.0435 62.9759 75.3185 62.7732 75.5212Z" fill="#E1C167"/>
</svg>
