<svg width="80" height="51" viewBox="0 0 80 51" fill="none" xmlns="http://www.w3.org/2000/svg">
<path fill-rule="evenodd" clip-rule="evenodd" d="M50.5156 5.19211L40.7965 0.177422C40.3381 -0.0591409 39.7937 -0.0591409 39.3351 0.177422L29.6159 5.19211C29.0859 5.46555 28.7529 6.01195 28.7529 6.60836C28.7529 7.20477 29.0861 7.75117 29.6159 8.02461L39.3351 13.0391C39.5645 13.1574 39.8151 13.2165 40.0657 13.2165C40.3164 13.2165 40.5673 13.1574 40.7964 13.0391L50.5154 8.02461C51.0454 7.75117 51.3784 7.20477 51.3784 6.60836C51.3784 6.01195 51.0457 5.46555 50.5156 5.19211ZM40.0659 9.82961L33.8223 6.60836L40.0659 3.38695L46.3093 6.60836L40.0659 9.82961ZM64.8263 14.5755L55.1071 9.56097C54.6486 9.3244 54.1043 9.3244 53.6457 9.56097L43.9264 14.5755C43.3964 14.8489 43.0635 15.3953 43.0635 15.9917C43.0635 16.5882 43.3964 17.1346 43.9264 17.408L53.6457 22.4225C53.875 22.5408 54.1257 22.5999 54.3763 22.5999C54.6269 22.5999 54.8777 22.5408 55.1069 22.4225L64.8261 17.408C65.3561 17.1346 65.6891 16.5882 65.6891 15.9917C65.6891 15.3953 65.3564 14.8489 64.8263 14.5755ZM54.3764 19.213L48.1329 15.9917L54.3764 12.7705L60.62 15.9917L54.3764 19.213ZM69.4175 18.9443L79.1367 23.959C79.6667 24.2324 79.9996 24.7788 79.9995 25.3752C79.9995 25.9716 79.6664 26.518 79.1365 26.7915L69.4173 31.806C69.1881 31.9243 68.9373 31.9833 68.6867 31.9833C68.4361 31.9833 68.1854 31.9243 67.9561 31.806L58.237 26.7915C57.707 26.518 57.374 25.9716 57.374 25.3752C57.374 24.7788 57.707 24.2324 58.237 23.959L67.9561 18.9443C68.4146 18.7077 68.959 18.7077 69.4175 18.9443ZM62.4434 25.3751L68.6868 28.5963L74.9304 25.3751L68.6868 22.1536L62.4434 25.3751ZM36.1396 14.6096L26.4205 9.5949C25.9621 9.35834 25.4177 9.35834 24.9591 9.5949L15.2399 14.6096C14.7099 14.883 14.377 15.4294 14.377 16.0258C14.377 16.6222 14.7099 17.1687 15.2399 17.4421L24.9591 22.4566C25.1885 22.5749 25.4391 22.634 25.6898 22.634C25.9404 22.634 26.1913 22.5749 26.4204 22.4566L36.1395 17.4421C36.6695 17.1687 37.0024 16.6222 37.0024 16.0258C37.0024 15.4294 36.6698 14.883 36.1396 14.6096ZM25.6899 19.2471L19.4463 16.0258L25.6899 12.8044L31.9334 16.0258L25.6899 19.2471ZM40.7311 18.9784L50.4503 23.993C50.9803 24.2664 51.3133 24.813 51.3131 25.4092C51.3131 26.0056 50.9802 26.552 50.4502 26.8255L40.7309 31.8402C40.5017 31.9584 40.2509 32.0175 40.0003 32.0175C39.7497 32.0175 39.4991 31.9584 39.2697 31.8402L29.5505 26.8255C29.0205 26.552 28.6875 26.0056 28.6875 25.4092C28.6875 24.8128 29.0206 24.2664 29.5505 23.993L39.2697 18.9784C39.7283 18.7419 40.2727 18.7419 40.7311 18.9784ZM33.7569 25.4092L40.0005 28.6306L46.2441 25.4092L40.0005 22.188L33.7569 25.4092ZM64.7607 33.3764L55.0415 28.3617C54.583 28.1252 54.0387 28.1252 53.5801 28.3617L43.861 33.3764C43.331 33.6499 42.998 34.1963 42.998 34.7927C42.998 35.3891 43.331 35.9355 43.861 36.2089L53.5801 41.2235C53.8095 41.3417 54.0601 41.4008 54.3107 41.4008C54.5613 41.4008 54.8121 41.3417 55.0413 41.2235L64.7605 36.2089C65.2905 35.9355 65.6235 35.3891 65.6235 34.7927C65.6237 34.1963 65.2907 33.6499 64.7607 33.3764ZM54.3109 38.0139L48.0674 34.7927L54.3109 31.5713L60.5545 34.7927L54.3109 38.0139ZM12.0434 19.0126L21.7625 24.0272C22.2927 24.3008 22.6255 24.8472 22.6255 25.4434C22.6255 26.0398 22.2925 26.5862 21.7625 26.8597L12.0434 31.8742C11.8144 31.9925 11.5636 32.0515 11.3128 32.0515C11.0622 32.0515 10.8116 31.9925 10.5822 31.8742L0.862969 26.8597C0.332969 26.5862 0 26.0398 0 25.4434C0 24.8472 0.332969 24.3008 0.862969 24.0272L10.582 19.0126C11.0406 18.7761 11.585 18.7761 12.0434 19.0126ZM5.06938 25.4434L11.313 28.6647L17.5564 25.4434L11.313 22.2222L5.06938 25.4434ZM36.0732 33.4105L26.354 28.3959C25.8955 28.1594 25.3512 28.1594 24.8926 28.3959L15.1735 33.4105C14.6437 33.6839 14.3105 34.2303 14.3105 34.8267C14.3105 35.4231 14.6435 35.9695 15.1735 36.243L24.8927 41.2576C25.1221 41.3759 25.3727 41.435 25.6234 41.435C25.874 41.435 26.1249 41.3759 26.354 41.2576L36.0732 36.243C36.6032 35.9695 36.9362 35.4231 36.9362 34.8267C36.9362 34.2305 36.6031 33.6839 36.0732 33.4105ZM25.6234 38.0481L19.3798 34.8267L25.6234 31.6055L31.867 34.8267L25.6234 38.0481ZM40.6645 37.7792L50.3838 42.7939C50.9137 43.0674 51.2466 43.6138 51.2466 44.2102C51.2466 44.8066 50.9134 45.353 50.3836 45.6264L40.6644 50.6409C40.4352 50.7592 40.1844 50.8183 39.9338 50.8183C39.6831 50.8183 39.4325 50.7592 39.2031 50.6409L29.4841 45.6264C28.9541 45.353 28.6211 44.8066 28.6211 44.2102C28.6211 43.6138 28.9541 43.0674 29.4841 42.7939L39.2031 37.7792C39.6617 37.5427 40.2061 37.5427 40.6645 37.7792ZM33.6905 44.2102L39.9339 47.4314L46.1775 44.2102L39.9339 40.9888L33.6905 44.2102Z" fill="#E1C167"/>
</svg>
