<svg width="66" height="66" viewBox="0 0 66 66" fill="none" xmlns="http://www.w3.org/2000/svg">
<path fill-rule="evenodd" clip-rule="evenodd" d="M0 66H66V0H0V66ZM3.86719 3.86719H62.1328V62.1328H3.86719V3.86719ZM42.668 9.66797C42.668 17.1267 48.8454 23.3319 56.332 23.3319H58.2656V7.73438H42.668V9.66797ZM54.3984 11.6016V19.2641C50.6036 18.469 47.531 15.3966 46.7359 11.6016H54.3984ZM23.3319 7.73438V9.66797C23.3319 17.1546 17.1265 23.332 9.66797 23.332H7.73438V7.73438H23.3319ZM19.264 11.6003H11.6016V19.2643C15.3964 18.469 18.4689 15.3964 19.264 11.6003ZM42.668 56.332V58.2656H58.2656V42.668H56.332C48.9059 42.668 42.668 48.8471 42.668 56.332ZM54.3984 54.3984H46.7359C47.531 50.6036 50.6036 47.531 54.3984 46.7357V54.3984ZM7.73438 42.668H9.66797C17.1546 42.668 23.332 48.8734 23.332 56.332V58.2656H7.73438V42.668ZM11.6016 46.7357V54.3984H19.2641C18.469 50.6034 15.3964 47.531 11.6016 46.7357ZM23.4307 45.3034L24.3034 46.621C26.1708 49.4406 27.1994 52.8892 27.1994 56.332V58.2656H38.8009V56.332C38.8009 52.8892 39.8295 49.4406 41.6971 46.621L42.5698 45.3034L33.0001 35.7338L23.4307 45.3034ZM35.0222 54.3984H30.9783C30.7046 51.3983 29.8016 48.4526 28.355 45.8481L33.0001 41.2029L37.6453 45.8481C36.1987 48.4526 35.2958 51.3983 35.0222 54.3984ZM20.6965 42.5695L19.379 41.6968C16.5596 39.8293 13.1108 38.8008 9.66797 38.8008H7.73438V27.1992H9.66797C13.1108 27.1992 16.5596 26.1707 19.379 24.3032L20.6965 23.4305L30.266 33L20.6965 42.5695ZM20.1518 28.3548C17.5474 29.8015 14.6017 30.7043 11.6016 30.978V35.0219C14.6017 35.2956 17.5474 36.1986 20.1518 37.6452L24.7971 33L20.1518 28.3548ZM42.5693 20.6965L41.6966 19.379C39.8291 16.5594 38.8006 13.1108 38.8006 9.66797V7.73438H27.199V9.66797C27.199 13.1108 26.1705 16.5594 24.3029 19.379L23.4302 20.6965L32.9998 30.2662L42.5693 20.6965ZM30.9778 11.6016H35.0217C35.2954 14.6017 36.1983 17.5474 37.6449 20.1519L32.9998 24.7971L28.3547 20.1519C29.8012 17.5474 30.7041 14.6017 30.9778 11.6016ZM45.3034 23.4305L46.6209 24.3032C49.4404 26.1707 52.8891 27.1992 56.3319 27.1992H58.2655V38.8008H56.3319C52.8891 38.8008 49.4404 39.8293 46.6209 41.6968L45.3034 42.5695L35.7339 33L45.3034 23.4305ZM45.8481 37.6453C48.4525 36.1986 51.3982 35.2957 54.3983 35.022V30.9781C51.3982 30.7045 48.4525 29.8015 45.8481 28.3549L41.2029 33L45.8481 37.6453Z" fill="#E1C167"/>
</svg>
