<svg width="66" height="66" viewBox="0 0 66 66" fill="none" xmlns="http://www.w3.org/2000/svg">
<path d="M66 22.6437V1.93359C66 0.865585 65.1344 0 64.0664 0H22.6452C22.6447 0 22.6442 0 22.6437 0H1.93359C0.865585 0 0 0.865585 0 1.93359V43.3548V43.3563V64.0664C0 65.1344 0.865585 66 1.93359 66H64.0664C65.1344 66 66 65.1344 66 64.0664V22.6452C66 22.6447 66 22.6442 66 22.6437ZM53.7111 15.0236L61.3317 22.6447L43.3553 40.6211L35.7347 33L53.7111 15.0236ZM33 30.2653L15.0236 12.2889L22.6447 4.66832L40.6211 22.6447L33 30.2653ZM43.3553 19.91L35.7342 12.2889L44.1564 3.86719H59.3981L43.3553 19.91ZM33 9.55467L27.3125 3.86719H38.6875L33 9.55467ZM12.2889 9.55467L6.60191 3.86719H17.9764L12.2889 9.55467ZM3.86719 6.60191L19.91 22.6447L12.2889 30.2653L3.86719 21.8436V6.60191ZM9.55467 33L3.86719 38.6875V27.3125L9.55467 33ZM4.66832 43.3553L22.6447 25.3789L30.2653 33L12.2889 50.9764L4.66832 43.3553ZM9.55467 53.7111L3.86719 59.3981V48.0236L9.55467 53.7111ZM33 35.7347L50.9764 53.7106L43.3553 61.3317L25.3789 43.3553L33 35.7347ZM38.6875 62.1328H27.3125L33 56.4453L38.6875 62.1328ZM53.7111 56.4453L59.3981 62.1328H48.0236L53.7111 56.4453ZM62.1328 59.3981L46.09 43.3553L53.7111 35.7347L62.1328 44.1564V59.3981ZM56.4453 33L62.1328 27.3125V38.6875L56.4453 33ZM56.4453 12.2889L62.1328 6.60191V17.9764L56.4453 12.2889ZM6.60191 62.1328L22.6447 46.09L30.2653 53.7111L21.8436 62.1328H6.60191Z" fill="#E1C167"/>
</svg>
