<svg width="66" height="66" viewBox="0 0 66 66" fill="none" xmlns="http://www.w3.org/2000/svg">
<path d="M27.2054 57.3401H10.1212C9.23906 57.3401 8.50505 56.6061 8.50505 55.7239C8.50505 54.9158 7.84512 54.1818 6.96296 54.1818C6.08081 54.1818 5.49495 54.9158 5.49495 55.7239C5.49495 58.2896 7.54882 60.3434 10.1145 60.3434H27.2054C29.771 60.3434 31.8249 58.2896 31.8249 55.7239V46.7071C32.1886 46.8552 32.5589 46.9293 32.9966 46.9293C33.4343 46.9293 33.8047 46.8552 34.1684 46.7071V55.7239C34.1684 58.2896 36.2222 60.3434 38.7879 60.3434H55.8721C58.4377 60.3434 60.4916 58.2896 60.4916 55.7239V38.6397C60.4916 36.0741 58.4377 34.0202 55.8721 34.0202H46.7811C46.9293 33.3603 46.9293 32.6263 46.7811 31.9663H55.8721C58.4377 31.9663 60.4916 29.9125 60.4916 27.3468V10.2626C60.4916 7.69697 58.4377 5.6431 55.8721 5.6431H38.7879C36.2222 5.6431 34.1684 7.69697 34.1684 10.2626V19.2795C33.8047 19.1313 33.4343 19.0572 32.9966 19.0572C32.5589 19.0572 32.1886 19.1313 31.8249 19.2795V10.2626C31.8249 7.69697 29.771 5.6431 27.2054 5.6431H10.1212C7.55556 5.6431 5.50168 7.69697 5.50168 10.2626V27.3468C5.50168 29.9125 7.55556 31.9663 10.1212 31.9663H19.2121C19.138 32.2626 19.064 32.6263 19.064 32.9899C19.064 33.3535 19.138 33.7239 19.2121 34.0135H10.1212C7.55556 34.0135 5.50168 36.0673 5.50168 38.633V48.3838C5.50168 49.1919 6.16162 49.9259 7.04377 49.9259C7.92593 49.9259 8.58586 49.266 8.58586 48.3838V38.6397C8.58586 37.7576 9.31987 37.0236 10.202 37.0236H21.569L28.8889 44.3636V55.7306C28.8148 56.6061 28.0808 57.3401 27.2054 57.3401ZM55.8721 37.1044C56.7542 37.1044 57.4882 37.8384 57.4882 38.7205V55.7306C57.4882 55.9529 57.4141 56.0943 57.4141 56.2424L47.8788 46.7071C47.5825 46.4108 47.0707 46.4108 46.7811 46.7071C46.4916 47.0034 46.4849 47.5152 46.7811 47.8047L56.2424 57.266C56.1684 57.266 56.0202 57.3401 55.8788 57.3401H38.7879C37.9057 57.3401 37.1717 56.6061 37.1717 55.7239V44.3636L44.5118 37.0303H55.8788V37.1044H55.8721ZM37.1785 21.1919V10.2626C37.1785 9.38047 37.9125 8.64646 38.7946 8.64646H55.8788C56.7609 8.64646 57.4949 9.38047 57.4949 10.2626V27.3468C57.4949 28.229 56.7609 28.963 55.8788 28.963H44.5118L37.1044 21.5556C37.1785 21.4141 37.1785 21.266 37.1785 21.1919ZM21.4815 28.963C21.4074 28.963 21.4074 28.963 21.3333 28.963H10.1212C9.23906 28.963 8.50505 28.229 8.50505 27.3468V10.2626C8.50505 9.38047 9.23906 8.64646 10.1212 8.64646H27.2054C28.0875 8.64646 28.8215 9.38047 28.8215 10.2626V21.4815V21.5556L21.4815 28.963ZM22.4377 33.7306C22.0741 33.367 22.0741 32.7071 22.4377 32.2626L32.2626 22.4377C32.4848 22.2155 32.7003 22.1414 32.9966 22.1414C33.2929 22.1414 33.5084 22.2155 33.7306 22.4377L43.5556 32.2626C43.9192 32.6263 43.9192 33.2862 43.5556 33.7306L33.7306 43.5556C33.367 43.9192 32.7071 43.9192 32.2626 43.5556L22.4377 33.7306ZM63.7172 0H2.27609C1.02357 0 0 1.02357 0 2.27609V63.7239C0 64.9697 1.02357 66 2.27609 66H63.7239C64.9697 66 66 64.9764 66 63.7239V2.27609C65.9933 1.02357 64.9697 0 63.7172 0ZM62.9899 62.9899H3.00337V3.00337H62.9091V62.9832H62.9899V62.9899Z" fill="#E1C167"/>
</svg>
