<svg width="76" height="76" viewBox="0 0 76 76" fill="none" xmlns="http://www.w3.org/2000/svg">
<path fill-rule="evenodd" clip-rule="evenodd" d="M35.5329 31.2508H40.5275L40.5444 31.2508H46.0444L46.0508 31.2508H50.1524L50.1699 31.2508H71.2445C71.8483 31.2508 72.4274 31.4907 72.8544 31.9176C73.2813 32.3446 73.5212 32.9237 73.5212 33.5275C73.5212 34.1314 73.2813 34.7105 72.8544 35.1375C72.4274 35.5644 71.8483 35.8043 71.2445 35.8043H4.75798C4.15414 35.8043 3.57504 35.5644 3.14807 35.1375C2.72109 34.7105 2.48122 34.1314 2.48122 33.5275C2.48122 32.9237 2.72109 32.3446 3.14807 31.9176C3.57504 31.4907 4.15414 31.2508 4.75798 31.2508H25.5235C25.5242 31.2508 25.5249 31.2508 25.5256 31.2508H29.6283C29.6327 31.2508 29.6371 31.2508 29.6415 31.2508H35.5227L35.5329 31.2508ZM30.7158 29.0886H34.4518V10.2584C34.4156 7.84138 35.2586 5.4935 36.8241 3.65161C38.3895 1.80971 40.5708 0.599243 42.9621 0.245426C44.3444 0.0643225 45.7494 0.18012 47.0833 0.585091C48.4173 0.990063 49.6496 1.67489 50.6979 2.59388C51.7462 3.51287 52.5865 4.64488 53.1626 5.91436C53.7387 7.18384 54.0374 8.5616 54.0388 9.9557V10.4962C54.038 11.3096 53.7149 12.0895 53.1402 12.6652C52.5656 13.2408 51.7863 13.5653 50.9729 13.5676H49.9588C49.1445 13.5667 48.3638 13.2429 47.788 12.6671C47.2122 12.0913 46.8883 11.3105 46.8875 10.4962V10.1081C46.9004 9.48145 46.6992 8.8691 46.3171 8.37221C45.935 7.87532 45.3948 7.52361 44.7859 7.37516C44.4022 7.29685 44.006 7.30474 43.6258 7.39827C43.2456 7.4918 42.8909 7.66863 42.5874 7.91597C42.2839 8.16332 42.0391 8.475 41.8708 8.8285C41.7024 9.182 41.6147 9.56848 41.614 9.96002V29.0886H44.9697V24.253C44.9709 23.1801 45.3976 22.1516 46.1562 21.3929C46.9148 20.6343 47.9434 20.2076 49.0162 20.2065H55.8746C56.1613 20.2065 56.4363 20.3204 56.639 20.5231C56.8418 20.7259 56.9557 21.0008 56.9557 21.2876C56.9537 22.6632 56.4063 23.9819 55.4336 24.9547C54.4609 25.9274 53.1421 26.4747 51.7665 26.4768H51.2411V29.0886H71.2423C71.8252 29.0886 72.4025 29.2034 72.941 29.4265C73.4796 29.6496 73.9689 29.9766 74.3811 30.3888C74.7933 30.8009 75.1203 31.2903 75.3433 31.8288C75.5664 32.3674 75.6812 32.9446 75.6812 33.5275C75.6812 34.1105 75.5664 34.6877 75.3433 35.2262C75.1203 35.7648 74.7933 36.2541 74.3811 36.6663C73.9689 37.0785 73.4796 37.4055 72.941 37.6286C72.6123 37.7647 72.2691 37.8606 71.919 37.9146C71.6599 42.9289 69.5533 47.6847 65.9854 51.2517C62.1751 55.0609 57.0095 57.2032 51.6218 57.2087H48.8344L46.4877 74.8984C46.4534 75.1582 46.3258 75.3968 46.1287 75.5696C45.9316 75.7424 45.6785 75.8377 45.4163 75.8378C45.3683 75.8377 45.3202 75.8345 45.2726 75.8281C44.9884 75.7902 44.731 75.641 44.5569 75.4133C44.3827 75.1857 44.3061 74.8982 44.3439 74.614L46.6539 57.2087H29.3938L31.7168 74.613C31.7356 74.7537 31.7266 74.8968 31.6901 75.0341C31.6536 75.1714 31.5905 75.3001 31.5042 75.413C31.418 75.5258 31.3103 75.6205 31.1875 75.6918C31.0646 75.763 30.9289 75.8093 30.7881 75.8281C30.7419 75.8343 30.6953 75.8375 30.6487 75.8378C30.3869 75.8375 30.1341 75.7422 29.9373 75.5696C29.7405 75.3971 29.6129 75.1589 29.5784 74.8995L27.213 57.2087H25.3959C21.0825 57.2191 16.8784 55.8524 13.3958 53.3074C9.91319 50.7625 7.33396 47.1722 6.0337 43.0595L4.4054 37.9526C3.94249 37.916 3.48746 37.8068 3.05711 37.6286C2.51856 37.4055 2.02922 37.0785 1.61702 36.6663C1.20483 36.2541 0.877864 35.7648 0.654787 35.2262C0.43171 34.6877 0.316895 34.1105 0.316895 33.5275C0.316895 32.9446 0.43171 32.3674 0.654787 31.8288C0.877864 31.2903 1.20483 30.8009 1.61702 30.3888C2.02922 29.9766 2.51856 29.6496 3.05711 29.4265C3.59567 29.2034 4.17289 29.0886 4.75581 29.0886H24.4445V26.4757H23.9201C22.5444 26.4739 21.2255 25.9267 20.2527 24.9539C19.2799 23.9811 18.7327 22.6622 18.731 21.2865C18.731 20.9997 18.8449 20.7248 19.0476 20.522C19.2503 20.3193 19.5253 20.2054 19.812 20.2054H26.6693C27.7422 20.2065 28.7708 20.6332 29.5294 21.3918C30.288 22.1504 30.7147 23.179 30.7158 24.2519V29.0886ZM28.5472 29.0886V24.253C28.5466 23.7534 28.3479 23.2744 27.9946 22.9212C27.6414 22.5679 27.1624 22.3692 26.6628 22.3686H21.0856C21.3051 22.9408 21.6929 23.4329 22.1977 23.7803C22.7026 24.1277 23.3008 24.314 23.9137 24.3146H25.518C25.8047 24.3146 26.0797 24.4285 26.2824 24.6312C26.4852 24.834 26.5991 25.1089 26.5991 25.3957L26.6012 29.0886H28.5472ZM49.0778 29.0886H47.1319V24.2519C47.1325 23.7523 47.3312 23.2734 47.6844 22.9201C48.0377 22.5668 48.5166 22.3681 49.0162 22.3676H54.5924C54.3727 22.9398 53.9847 23.432 53.4797 23.7794C52.9746 24.1267 52.3762 24.313 51.7632 24.3135H50.1589C49.8722 24.3135 49.5972 24.4274 49.3945 24.6301C49.1917 24.8329 49.0778 25.1079 49.0778 25.3946V29.0886ZM39.4464 29.0886H36.614L36.6215 10.2562C36.5847 8.36485 37.2359 6.52443 38.454 5.07705C39.6722 3.62967 41.3744 2.67378 43.2442 2.38705C44.3245 2.23942 45.4239 2.32724 46.467 2.64447C47.5102 2.9617 48.4723 3.50083 49.2875 4.22489C50.102 4.94099 50.7546 5.82233 51.202 6.81027C51.6493 7.79821 51.8812 8.8701 51.8821 9.95462V10.4952C51.8821 10.7363 51.7863 10.9675 51.6158 11.1381C51.4453 11.3086 51.214 11.4043 50.9729 11.4043H49.9534C49.7123 11.4043 49.481 11.3086 49.3105 11.1381C49.14 10.9675 49.0442 10.7363 49.0442 10.4952V10.1081C49.0647 8.97704 48.6918 7.87392 47.9893 6.98722C47.2868 6.10052 46.2981 5.48525 45.1923 5.24651C44.4957 5.10747 43.777 5.12461 43.0878 5.29668C42.3986 5.46875 41.7561 5.79148 41.2066 6.24163C40.6571 6.69178 40.2142 7.25816 39.9098 7.90001C39.6055 8.54185 39.4472 9.24319 39.4464 9.95354V29.0886ZM51.6218 55.0476C56.2498 55.0421 60.7016 53.2721 64.07 50.0984C67.4383 46.9246 69.4698 42.586 69.7505 37.9665H6.6791L8.09424 42.3989C9.25498 46.0743 11.5587 49.2831 14.6699 51.5582C17.7811 53.8332 21.5373 55.0557 25.3915 55.0476H47.6448C47.772 55.0178 47.9037 55.0113 48.0335 55.0285C48.0686 55.0332 48.1034 55.0395 48.1377 55.0476H51.6218Z" fill="#E1C167"/>
</svg>
