<svg width="80" height="80" viewBox="0 0 80 80" fill="none" xmlns="http://www.w3.org/2000/svg">
<path d="M66.1781 23.8308C66.065 18.7429 63.9502 13.9049 60.2925 10.3664C56.6348 6.82802 51.7293 4.8747 46.6405 4.93036C41.5517 4.98601 36.6901 7.04614 33.1106 10.6637C29.5312 14.2813 27.5227 19.1644 27.521 24.2536V49.5949C26.3704 49.6068 25.2708 50.0718 24.4609 50.8891C23.6509 51.7064 23.1959 52.8101 23.1945 53.9608V56.212H15.4528C14.8665 56.2086 14.2853 56.3211 13.7426 56.5431C13.1999 56.7651 12.7064 57.0922 12.2906 57.5055C11.8748 57.9189 11.5448 58.4104 11.3196 58.9518C11.0944 59.4932 10.9785 60.0738 10.9785 60.6601C10.9785 61.2464 11.0944 61.827 11.3196 62.3684C11.5448 62.9098 11.8748 63.4013 12.2906 63.8147C12.7064 64.228 13.1999 64.5551 13.7426 64.7771C14.2853 64.9991 14.8665 65.1116 15.4528 65.1082H23.1945V73.5385C23.1945 73.9465 23.3566 74.3378 23.6451 74.6263C23.9336 74.9149 24.325 75.077 24.733 75.077H40.3138C40.7218 75.077 41.1131 74.9149 41.4016 74.6263C41.6901 74.3378 41.8522 73.9465 41.8522 73.5385V53.9608C41.8509 52.803 41.3904 51.6931 40.5718 50.8744C39.7531 50.0557 38.6432 49.5952 37.4854 49.5939H37.3231V25.1846C37.3231 22.6962 38.2686 20.3007 39.9684 18.4832C41.6681 16.6656 43.995 15.562 46.4779 15.3956C48.9608 15.2292 51.4142 16.0125 53.3412 17.587C55.2683 19.1614 56.525 21.4093 56.857 23.8756C56.6098 24.0063 56.4028 24.202 56.2585 24.4415C56.1142 24.6811 56.0378 24.9554 56.0378 25.2351V30.1846C56.0378 30.5927 56.1998 30.984 56.4884 31.2725C56.7769 31.561 57.1682 31.7231 57.5762 31.7231H65.5494C65.9575 31.7231 66.3488 31.561 66.6373 31.2725C66.9258 30.984 67.0879 30.5927 67.0879 30.1846V25.2346C67.0878 24.9378 67.0019 24.6473 66.8405 24.3982C66.679 24.1492 66.449 23.9521 66.1781 23.8308ZM14.0816 60.66C14.082 60.2965 14.2267 59.948 14.4837 59.691C14.7408 59.4339 15.0893 59.2894 15.4528 59.2889H30.7805C30.9618 59.287 31.1417 59.3211 31.3097 59.3891C31.4778 59.4572 31.6306 59.5579 31.7595 59.6854C31.8884 59.8129 31.9907 59.9647 32.0605 60.132C32.1303 60.2993 32.1663 60.4788 32.1663 60.6601C32.1663 60.8414 32.1303 61.0209 32.0605 61.1882C31.9907 61.3555 31.8884 61.5073 31.7595 61.6348C31.6306 61.7623 31.4778 61.863 31.3097 61.9311C31.1417 61.9991 30.9618 62.0332 30.7805 62.0313H15.4528C15.0893 62.0308 14.7407 61.8862 14.4837 61.6292C14.2266 61.3721 14.082 61.0236 14.0816 60.66ZM37.4854 52.6708C37.8274 52.6712 38.1553 52.8073 38.3971 53.0491C38.6389 53.2909 38.7749 53.6188 38.7753 53.9608V72H26.2714V65.1077H30.7805C31.3669 65.1112 31.9481 64.9987 32.4908 64.7767C33.0335 64.5547 33.5269 64.2276 33.9427 63.8142C34.3586 63.4008 34.6886 62.9093 34.9137 62.3679C35.1389 61.8265 35.2548 61.246 35.2548 60.6596C35.2548 60.0733 35.1389 59.4927 34.9137 58.9514C34.6886 58.41 34.3586 57.9185 33.9427 57.5051C33.5269 57.0917 33.0335 56.7646 32.4908 56.5426C31.9481 56.3206 31.3669 56.2081 30.7805 56.2116H26.2714V53.9608C26.2718 53.6188 26.4078 53.2909 26.6496 53.0491C26.8914 52.8073 27.2193 52.6712 27.5613 52.6708H37.4854ZM47.1353 12.2954C43.718 12.2992 40.4418 13.6584 38.0255 16.0748C35.6091 18.4912 34.25 21.7674 34.2462 25.1846V49.5939H30.5979V24.2542C30.597 19.9914 32.2708 15.8988 35.2587 12.8584C38.2466 9.81791 42.3093 8.07296 46.5715 7.9995C50.8337 7.92603 54.9541 9.52993 58.045 12.4656C61.1359 15.4013 62.9497 19.4337 63.0958 23.694C63.0338 23.6861 62.9714 23.6819 62.909 23.6816H59.9371C59.565 20.5465 58.0567 17.6565 55.6977 15.5583C53.3386 13.4601 50.2924 12.2993 47.1353 12.2954ZM64.0113 28.6462H59.115V26.7731H64.0113V28.6462Z" fill="#FDFDCE"/>
<path d="M58.3385 37.1688C59.1882 37.1688 59.877 36.48 59.877 35.6304C59.877 34.7807 59.1882 34.0919 58.3385 34.0919C57.4888 34.0919 56.8 34.7807 56.8 35.6304C56.8 36.48 57.4888 37.1688 58.3385 37.1688Z" fill="#FDFDCE"/>
<path d="M57.6723 42.9049C58.5219 42.9049 59.2107 42.2161 59.2107 41.3665C59.2107 40.5168 58.5219 39.828 57.6723 39.828C56.8226 39.828 56.1338 40.5168 56.1338 41.3665C56.1338 42.2161 56.8226 42.9049 57.6723 42.9049Z" fill="#FDFDCE"/>
<path d="M57.0048 48.6422C57.8544 48.6422 58.5432 47.9534 58.5432 47.1038C58.5432 46.2541 57.8544 45.5653 57.0048 45.5653C56.1551 45.5653 55.4663 46.2541 55.4663 47.1038C55.4663 47.9534 56.1551 48.6422 57.0048 48.6422Z" fill="#FDFDCE"/>
<path d="M56.337 54.3787C57.1867 54.3787 57.8755 53.6899 57.8755 52.8402C57.8755 51.9906 57.1867 51.3018 56.337 51.3018C55.4874 51.3018 54.7986 51.9906 54.7986 52.8402C54.7986 53.6899 55.4874 54.3787 56.337 54.3787Z" fill="#FDFDCE"/>
<path d="M55.6693 60.115C56.519 60.115 57.2078 59.4262 57.2078 58.5765C57.2078 57.7269 56.519 57.0381 55.6693 57.0381C54.8197 57.0381 54.1309 57.7269 54.1309 58.5765C54.1309 59.4262 54.8197 60.115 55.6693 60.115Z" fill="#FDFDCE"/>
<path d="M61.5577 60.115C62.4074 60.115 63.0962 59.4262 63.0962 58.5765C63.0962 57.7269 62.4074 57.0381 61.5577 57.0381C60.7081 57.0381 60.0193 57.7269 60.0193 58.5765C60.0193 59.4262 60.7081 60.115 61.5577 60.115Z" fill="#FDFDCE"/>
<path d="M67.4569 60.115C68.3066 60.115 68.9954 59.4262 68.9954 58.5765C68.9954 57.7269 68.3066 57.0381 67.4569 57.0381C66.6072 57.0381 65.9185 57.7269 65.9185 58.5765C65.9185 59.4262 66.6072 60.115 67.4569 60.115Z" fill="#FDFDCE"/>
<path d="M61.5577 54.3787C62.4074 54.3787 63.0962 53.6899 63.0962 52.8402C63.0962 51.9906 62.4074 51.3018 61.5577 51.3018C60.7081 51.3018 60.0193 51.9906 60.0193 52.8402C60.0193 53.6899 60.7081 54.3787 61.5577 54.3787Z" fill="#FDFDCE"/>
<path d="M66.7892 54.3787C67.6389 54.3787 68.3277 53.6899 68.3277 52.8402C68.3277 51.9906 67.6389 51.3018 66.7892 51.3018C65.9395 51.3018 65.2507 51.9906 65.2507 52.8402C65.2507 53.6899 65.9395 54.3787 66.7892 54.3787Z" fill="#FDFDCE"/>
<path d="M61.5577 48.6422C62.4074 48.6422 63.0962 47.9534 63.0962 47.1038C63.0962 46.2541 62.4074 45.5653 61.5577 45.5653C60.7081 45.5653 60.0193 46.2541 60.0193 47.1038C60.0193 47.9534 60.7081 48.6422 61.5577 48.6422Z" fill="#FDFDCE"/>
<path d="M66.1217 48.6422C66.9714 48.6422 67.6602 47.9534 67.6602 47.1038C67.6602 46.2541 66.9714 45.5653 66.1217 45.5653C65.272 45.5653 64.5833 46.2541 64.5833 47.1038C64.5833 47.9534 65.272 48.6422 66.1217 48.6422Z" fill="#FDFDCE"/>
<path d="M61.5577 42.9049C62.4074 42.9049 63.0962 42.2161 63.0962 41.3665C63.0962 40.5168 62.4074 39.828 61.5577 39.828C60.7081 39.828 60.0193 40.5168 60.0193 41.3665C60.0193 42.2161 60.7081 42.9049 61.5577 42.9049Z" fill="#FDFDCE"/>
<path d="M65.454 42.9049C66.3037 42.9049 66.9925 42.2161 66.9925 41.3665C66.9925 40.5168 66.3037 39.828 65.454 39.828C64.6043 39.828 63.9155 40.5168 63.9155 41.3665C63.9155 42.2161 64.6043 42.9049 65.454 42.9049Z" fill="#FDFDCE"/>
<path d="M61.5585 37.1688C62.4081 37.1688 63.0969 36.48 63.0969 35.6304C63.0969 34.7807 62.4081 34.0919 61.5585 34.0919C60.7088 34.0919 60.02 34.7807 60.02 35.6304C60.02 36.48 60.7088 37.1688 61.5585 37.1688Z" fill="#FDFDCE"/>
<path d="M64.7877 37.1688C65.6374 37.1688 66.3262 36.48 66.3262 35.6304C66.3262 34.7807 65.6374 34.0919 64.7877 34.0919C63.9381 34.0919 63.2493 34.7807 63.2493 35.6304C63.2493 36.48 63.9381 37.1688 64.7877 37.1688Z" fill="#FDFDCE"/>
</svg>
