<svg width="183" height="40" viewBox="0 0 183 40" fill="none" xmlns="http://www.w3.org/2000/svg">
<g clip-path="url(#clip0_530_476)">
<path fill-rule="evenodd" clip-rule="evenodd" d="M13.2727 11.8333C11.4477 11.8333 9.78864 12.3333 8.29545 13.1667C6.96818 14 5.64091 15.3333 4.97727 16.6667H4.81136V0H0V39H4.81136V23C4.81136 22.1667 4.81136 21.3333 5.14318 20.6667C6.13864 18 8.46136 15.8333 11.6136 15.8333C16.0932 15.8333 17.7523 19.5 17.7523 23.6667V39H22.5636V23.1667C22.5636 14.1667 16.9227 11.8333 13.2727 11.8333Z" fill="black"/>
<path d="M31.025 12.5H26.2136V39.1667H31.025V12.5Z" fill="black"/>
<path fill-rule="evenodd" clip-rule="evenodd" d="M119.289 12.5L115.473 25.8333C114.643 29 113.979 31.8333 113.482 34.5H113.316C112.652 31.8333 111.989 29 110.993 25.8333L106.845 12.5H102.698L98.384 26.1667C97.5545 29 96.559 31.8333 96.0613 34.5H95.8954C95.3977 31.8333 94.734 29 93.9045 26L90.4204 12.5H85.4431L93.4068 39.1667H97.8863L102.2 26.5C103.195 23.6667 104.025 20.8333 104.689 17.6667H104.854C105.518 20.8333 106.348 23.5 107.177 26.5L111.159 39.1667H115.473L124.1 12.5H119.289Z" fill="black"/>
<path fill-rule="evenodd" clip-rule="evenodd" d="M182.5 24.3333C182.5 19.5 180.177 11.8333 171.55 11.8333C164.748 11.8333 160.434 16.6666 159.273 23.1666H155.623L154.793 26.6666H159.107C159.273 34.5 164.084 39.1666 172.214 39.1666C176.527 39.1666 179.348 38.3333 181.173 37.5L180.343 34C178.518 34.8333 176.527 35.3333 173.043 35.3333C168.066 35.3333 164.084 33.3333 163.918 26.6666H182.832L182.5 24.3333ZM166.075 23.1666H163.752C164.084 19.8333 166.241 15.3333 171.218 15.3333C176.693 15.3333 178.02 20.1666 177.855 23.1666H166.075Z" fill="black"/>
<path fill-rule="evenodd" clip-rule="evenodd" d="M48.1135 11.8333C43.7999 11.8333 40.6476 14.3333 39.3204 16.8333H39.1545L38.8226 12.3333H34.8408V39H39.6522V23C39.6522 22.1666 39.8181 21.3333 39.984 20.6666C40.8135 18 43.3022 15.6666 46.4545 15.6666C50.934 15.6666 52.5931 19.3333 52.5931 23.5V38.8333H57.4045V23C57.4045 14.1666 51.7635 11.8333 48.1135 11.8333Z" fill="black"/>
<path fill-rule="evenodd" clip-rule="evenodd" d="M79.6363 15.8333C78.309 13.8333 75.6545 11.8333 71.5067 11.8333C65.0363 11.8333 59.5613 17.1667 59.5613 26.1667C59.5613 34.1667 64.5385 39.6667 71.009 39.6667C75.3226 39.6667 78.4749 37.3333 79.9681 34.3333H80.134L80.2999 39H84.4476V0H79.6363V15.8333ZM79.6363 28C79.6363 28.8333 79.6363 29.3333 79.4704 30.1667C78.6408 33.8333 75.6545 36 72.3363 36C67.1931 36 64.5386 31.5 64.5386 26.1667C64.5386 20.3333 67.5249 16 72.5022 16C76.1522 16 78.8067 18.5 79.4704 21.5C79.6363 21.8333 79.6363 22.6667 79.6363 23.3333V28Z" fill="black"/>
<path fill-rule="evenodd" clip-rule="evenodd" d="M138.866 39H143.677V22.6666C143.677 17.3333 141.686 11.8333 133.557 11.8333C130.239 11.8333 126.92 12.8333 124.764 14.1666L125.925 17.3333C127.75 16 130.404 15.3333 132.893 15.3333C138.368 15.3333 138.866 19.3333 138.866 21.5V23.1666C127.418 23.1666 123.27 25 122.939 31.1666C122.773 35 125.593 39 131.068 39C132.727 39 134.22 38.6666 135.382 38.1666L135.714 34.6666C134.718 35.1666 133.723 35.5 132.395 35.5C129.907 35.5 128.082 34.8333 128.082 31.6666C128.082 26.5 131.732 26.6666 139.032 26.6666L138.866 39Z" fill="black"/>
<path fill-rule="evenodd" clip-rule="evenodd" d="M159.77 16.5L160.268 12C159.77 12 159.439 11.8333 158.941 11.8333C155.789 11.8333 152.802 14.1666 151.475 17.6666H151.309L150.977 12.3333H146.995V39H151.807V24.8333C151.807 24 151.807 23.1666 151.973 22.5C152.636 18.8333 155.125 16.3333 158.443 16.3333C159.273 16.5 159.273 16.3333 159.77 16.5Z" fill="black"/>
</g>
<defs>
<clipPath id="clip0_530_476">
<rect width="182.5" height="40" fill="white"/>
</clipPath>
</defs>
</svg>
