<svg width="34" height="33" viewBox="0 0 34 33" fill="none" xmlns="http://www.w3.org/2000/svg">
<path d="M27.576 9.52643L18.4093 4.50538C18.0299 4.29595 17.5985 4.18561 17.1593 4.18561C16.7202 4.18561 16.2888 4.29595 15.9093 4.50538L6.74267 9.52643C5.97601 9.95275 5.49267 10.7264 5.49267 11.5791V21.6054C5.49267 22.458 5.97601 23.2317 6.74267 23.658L15.9093 28.6791C16.676 29.1054 17.6427 29.1054 18.4093 28.6791L27.576 23.658C28.3427 23.2317 28.826 22.458 28.826 21.6054V11.5791C28.826 10.7264 28.3427 9.95275 27.576 9.52643ZM8.82601 21.1475V13.8527L15.4927 17.5159V24.7949L8.82601 21.1475ZM17.1593 14.7843L10.4927 11.1212L17.1593 7.4738L23.826 11.1212L17.1593 14.7843ZM18.826 24.7949V17.5159L25.4927 13.8527V21.1475L18.826 24.7949ZM8.82601 0.684326H2.99268C1.60934 0.684326 0.492676 1.74222 0.492676 3.05275V8.57906H3.82601V3.84222H8.82601V0.684326ZM25.4927 0.684326H31.326C32.7093 0.684326 33.826 1.74222 33.826 3.05275V8.57906H30.4927V3.84222H25.4927V0.684326ZM8.82601 32.2633H2.99268C1.60934 32.2633 0.492676 31.2054 0.492676 29.8949V24.3685H3.82601V29.1054H8.82601V32.2633ZM25.4927 32.2633H31.326C32.7093 32.2633 33.826 31.2054 33.826 29.8949V24.3685H30.4927V29.1054H25.4927V32.2633Z" fill="#E1C167"/>
</svg>
