<svg width="50" height="50" viewBox="0 0 50 50" fill="none" xmlns="http://www.w3.org/2000/svg">
<path d="M40.625 14L26.875 6.05C26.3058 5.7184 25.6588 5.5437 25 5.5437C24.3412 5.5437 23.6942 5.7184 23.125 6.05L9.375 14C8.225 14.675 7.5 15.9 7.5 17.25V33.125C7.5 34.475 8.225 35.7 9.375 36.375L23.125 44.325C24.275 45 25.725 45 26.875 44.325L40.625 36.375C41.775 35.7 42.5 34.475 42.5 33.125V17.25C42.5 15.9 41.775 14.675 40.625 14ZM12.5 32.4V20.85L22.5 26.65V38.175L12.5 32.4ZM25 22.325L15 16.525L25 10.75L35 16.525L25 22.325ZM27.5 38.175V26.65L37.5 20.85V32.4L27.5 38.175ZM12.5 0H3.75C1.675 0 0 1.675 0 3.75V12.5H5V5H12.5V0ZM37.5 0H46.25C48.325 0 50 1.675 50 3.75V12.5H45V5H37.5V0ZM12.5 50H3.75C1.675 50 0 48.325 0 46.25V37.5H5V45H12.5V50ZM37.5 50H46.25C48.325 50 50 48.325 50 46.25V37.5H45V45H37.5V50Z" fill="black"/>
</svg>
