<svg width="24" height="24" viewBox="0 0 24 24" fill="none" xmlns="http://www.w3.org/2000/svg">
<path d="M8.78866 19.0394L7.57364 20.2469C7.06464 20.7479 6.37907 21.0287 5.66486 21.0287C4.95065 21.0287 4.26508 20.7479 3.75608 20.2469C3.50791 20.0012 3.31091 19.7087 3.17646 19.3863C3.04201 19.064 2.97279 18.7182 2.97279 18.3689C2.97279 18.0196 3.04201 17.6738 3.17646 17.3515C3.31091 17.0291 3.50791 16.7366 3.75608 16.4909L8.22615 12.0583C9.15167 11.1388 10.8947 9.78576 12.1652 11.0458C12.3019 11.1916 12.4666 11.3083 12.6495 11.3891C12.8323 11.4698 13.0295 11.5129 13.2294 11.5157C13.4293 11.5186 13.6276 11.4812 13.8127 11.4057C13.9978 11.3302 14.1657 11.2181 14.3065 11.0763C14.4474 10.9345 14.5582 10.7657 14.6324 10.5801C14.7065 10.3945 14.7426 10.1959 14.7383 9.99605C14.734 9.79623 14.6895 9.59931 14.6075 9.41705C14.5254 9.23479 14.4075 9.07093 14.2607 8.93525C12.1037 6.79321 8.91166 7.18922 6.13212 9.94777L1.66205 14.3818C1.13387 14.9026 0.714845 15.5234 0.429466 16.208C0.144088 16.8926 -0.00190769 17.6272 1.88202e-05 18.3689C-0.00182394 19.1106 0.14421 19.8452 0.429583 20.5298C0.714957 21.2144 1.13394 21.8352 1.66205 22.356C2.72661 23.4119 4.16618 24.0031 5.66561 24C7.11613 24 8.56666 23.4525 9.66918 22.356L10.8857 21.1484C11.0244 21.0112 11.1347 20.848 11.2102 20.6681C11.2857 20.4882 11.3249 20.2951 11.3256 20.1C11.3263 19.9049 11.2885 19.7115 11.2143 19.5311C11.14 19.3506 11.0309 19.1866 10.8932 19.0484C10.6147 18.7692 10.2371 18.6115 9.84278 18.6099C9.44846 18.6082 9.06949 18.7626 8.78866 19.0394ZM22.3369 1.81314C20.0163 -0.487902 16.7733 -0.612404 14.6283 1.51763L13.1147 3.02065C12.8351 3.29834 12.6771 3.67575 12.6757 4.06987C12.6743 4.46398 12.8295 4.84251 13.1072 5.12219C13.3849 5.40186 13.7623 5.55977 14.1564 5.56118C14.5506 5.56259 14.9291 5.40737 15.2088 5.12969L16.7238 3.62816C17.8338 2.52415 19.2903 2.98165 20.2428 3.92367C20.7469 4.42618 21.0259 5.09219 21.0259 5.8017C21.0259 6.51121 20.7469 7.17722 20.2428 7.67823L15.4728 12.4093C13.2917 14.5708 12.2687 13.5583 11.8322 13.1248C11.6937 12.9873 11.5295 12.8784 11.349 12.8044C11.1684 12.7304 10.975 12.6926 10.7799 12.6933C10.5847 12.694 10.3916 12.7331 10.2116 12.8085C10.0316 12.8838 9.86817 12.9938 9.73068 13.1323C9.59318 13.2708 9.48431 13.435 9.41027 13.6156C9.33624 13.7961 9.29849 13.9895 9.29918 14.1846C9.29988 14.3798 9.33901 14.5729 9.41433 14.7529C9.48965 14.9329 9.5997 15.0964 9.73818 15.2339C10.7402 16.2269 11.8832 16.7189 13.0802 16.7189C14.5458 16.7189 16.0953 15.9809 17.5698 14.5183L22.3399 9.78876C22.8669 9.26726 23.2851 8.64626 23.5701 7.96182C23.8552 7.27738 24.0014 6.54313 24.0004 5.8017C24.0018 5.05973 23.8553 4.32492 23.5697 3.64013C23.2841 2.95534 22.865 2.33426 22.3369 1.81314Z" fill="black"/>
</svg>
