<svg width="26" height="24" viewBox="0 0 26 24" fill="none" xmlns="http://www.w3.org/2000/svg">
<path d="M25.2364 19.2207C25.2364 20.1382 24.7252 21.905 23.5781 22.8755C23.3484 23.0522 23.1174 22.9525 23.2184 22.6951C23.5528 21.8773 24.3189 19.9855 23.9592 19.5501C23.7068 19.2194 22.6593 19.2434 21.7658 19.3204C21.3569 19.3721 20.9997 19.3961 20.7208 19.4529C20.4646 19.4744 20.4116 19.2472 20.6691 19.0705C20.9997 18.837 21.3569 18.6604 21.767 18.5304C23.2184 18.0962 24.8969 18.3575 25.1367 18.6351C25.1821 18.6881 25.2376 18.837 25.2376 19.2194L25.2364 19.2207ZM22.812 20.8538C22.4788 21.1083 22.1288 21.3402 21.7645 21.5479C19.0865 23.157 15.6184 24 12.6047 24C7.75474 24 3.41715 22.2117 0.125778 19.2194C-0.155654 18.9897 0.0778212 18.6566 0.407211 18.837C3.95351 20.9068 8.34285 22.1587 12.8874 22.1587C15.9256 22.1501 18.9359 21.5784 21.7658 20.4726C21.9702 20.3956 22.1999 20.2909 22.4006 20.2177C22.8638 20.0095 23.2714 20.5244 22.812 20.8538ZM15.0253 6.93359C15.0253 5.61981 15.077 4.84619 14.6416 4.18236C14.2555 3.6359 13.5904 3.30778 12.6628 3.35952C11.6557 3.41505 10.5741 4.07509 10.2977 5.28538C10.2447 5.56302 10.0819 5.83562 9.74749 5.89494L6.67318 5.50371C6.45359 5.45323 6.12041 5.28538 6.22895 4.84619C6.88899 1.37309 9.85728 0.162802 12.6628 0H13.3228C14.8625 0 16.8401 0.440448 18.1059 1.5952C19.6418 3.02887 19.479 4.95472 19.479 7.04717V12.0032C19.479 13.4898 20.081 14.1486 20.688 14.9235C20.8521 15.1999 20.9076 15.5255 20.6312 15.7501C19.8364 16.4593 19.0299 17.1552 18.2119 17.8375C17.9923 18.0054 17.596 18.023 17.4421 17.8943C16.4703 17.0803 16.2331 16.6285 15.6311 15.8019C14.5836 16.9011 13.7052 17.5081 12.659 17.8375C11.9232 18.0243 11.1666 18.1159 10.4075 18.1101C7.76989 18.1101 5.67997 16.4657 5.67997 13.2134C5.67997 10.6275 7.05558 8.86954 9.08744 8.03786C11.1193 7.20492 14.0725 6.9399 15.024 6.93485L15.0253 6.93359ZM14.422 13.486C15.0783 12.3855 15.024 11.4845 15.024 9.46648C14.2024 9.46648 13.3758 9.52327 12.6628 9.69112C11.344 10.0735 10.2977 10.9039 10.2977 12.6632C10.2977 14.0388 11.0133 14.9752 12.2223 14.9752C12.3889 14.9752 12.5353 14.955 12.6628 14.9184C13.5083 14.6837 14.0359 14.2597 14.422 13.486Z" fill="black"/>
</svg>
