<svg width="26" height="26" viewBox="0 0 26 26" fill="none" xmlns="http://www.w3.org/2000/svg">
<path d="M13 23.5C10.2152 23.5 7.54451 22.3938 5.57538 20.4246C3.60625 18.4555 2.5 15.7848 2.5 13C2.5 10.2152 3.60625 7.54451 5.57538 5.57538C7.54451 3.60625 10.2152 2.5 13 2.5C15.7848 2.5 18.4555 3.60625 20.4246 5.57538C22.3938 7.54451 23.5 10.2152 23.5 13C23.5 15.7848 22.3938 18.4555 20.4246 20.4246C18.4555 22.3938 15.7848 23.5 13 23.5ZM13 25C16.1826 25 19.2348 23.7357 21.4853 21.4853C23.7357 19.2348 25 16.1826 25 13C25 9.8174 23.7357 6.76516 21.4853 4.51472C19.2348 2.26428 16.1826 1 13 1C9.8174 1 6.76516 2.26428 4.51472 4.51472C2.26428 6.76516 1 9.8174 1 13C1 16.1826 2.26428 19.2348 4.51472 21.4853C6.76516 23.7357 9.8174 25 13 25Z" fill="#E1C167" stroke="#E1C167" stroke-width="2"/>
<path d="M14.395 10.882L10.96 11.3125L10.837 11.8825L11.512 12.007C11.953 12.112 12.04 12.271 11.944 12.7105L10.837 17.9125C10.546 19.258 10.9945 19.891 12.049 19.891C12.8665 19.891 13.816 19.513 14.2465 18.994L14.3785 18.37C14.0785 18.634 13.6405 18.739 13.3495 18.739C12.937 18.739 12.787 18.4495 12.8935 17.9395L14.395 10.882ZM14.5 7.75C14.5 8.14782 14.342 8.52936 14.0606 8.81066C13.7793 9.09196 13.3978 9.25 13 9.25C12.6022 9.25 12.2206 9.09196 11.9393 8.81066C11.658 8.52936 11.5 8.14782 11.5 7.75C11.5 7.35218 11.658 6.97064 11.9393 6.68934C12.2206 6.40804 12.6022 6.25 13 6.25C13.3978 6.25 13.7793 6.40804 14.0606 6.68934C14.342 6.97064 14.5 7.35218 14.5 7.75Z" fill="#E1C167"/>
</svg>
