<svg width="109" height="11" viewBox="0 0 109 11" fill="none" xmlns="http://www.w3.org/2000/svg">
<path d="M4.94743 10.168C7.74743 10.168 9.10543 8.768 9.10543 7.13C9.10543 3.532 3.40743 4.778 3.40743 2.972C3.40743 2.356 3.92543 1.852 5.26943 1.852C6.13743 1.852 7.07543 2.104 7.98543 2.622L8.68543 0.899999C7.77543 0.325999 6.51543 0.0319998 5.28343 0.0319998C2.49743 0.0319998 1.15343 1.418 1.15343 3.084C1.15343 6.724 6.85143 5.464 6.85143 7.298C6.85143 7.9 6.30543 8.348 4.96143 8.348C3.78543 8.348 2.55343 7.928 1.72743 7.326L0.95743 9.034C1.82543 9.706 3.39343 10.168 4.94743 10.168ZM12.5484 10H14.8164V2.048H17.9524V0.199999H9.41245V2.048H12.5484V10ZM23.782 10.168C26.862 10.168 29.144 8.026 29.144 5.1C29.144 2.174 26.862 0.0319998 23.782 0.0319998C20.688 0.0319998 18.42 2.188 18.42 5.1C18.42 8.012 20.688 10.168 23.782 10.168ZM23.782 8.236C22.032 8.236 20.716 6.962 20.716 5.1C20.716 3.238 22.032 1.964 23.782 1.964C25.532 1.964 26.848 3.238 26.848 5.1C26.848 6.962 25.532 8.236 23.782 8.236ZM39.5285 10L37.3305 6.85C38.6045 6.304 39.3465 5.226 39.3465 3.756C39.3465 1.558 37.7085 0.199999 35.0905 0.199999H30.8485V10H33.1165V7.27H35.0905H35.2025L37.0925 10H39.5285ZM37.0505 3.756C37.0505 4.82 36.3505 5.464 34.9645 5.464H33.1165V2.048H34.9645C36.3505 2.048 37.0505 2.678 37.0505 3.756ZM43.3974 8.18V5.912H47.9474V4.148H43.3974V2.02H48.5494V0.199999H41.1434V10H48.7314V8.18H43.3974ZM61.9069 2.02V0.199999H54.5009V10H56.7689V6.43H61.3049V4.61H56.7689V2.02H61.9069ZM63.4423 10H65.7103V0.199999H63.4423V10ZM74.784 0.199999V6.15L69.912 0.199999H68.036V10H70.276V4.05L75.162 10H77.024V0.199999H74.784ZM79.3427 10H83.7947C87.0007 10 89.1987 8.068 89.1987 5.1C89.1987 2.132 87.0007 0.199999 83.7947 0.199999H79.3427V10ZM81.6107 8.138V2.062H83.6827C85.6287 2.062 86.9027 3.224 86.9027 5.1C86.9027 6.976 85.6287 8.138 83.6827 8.138H81.6107ZM93.1631 8.18V5.912H97.7131V4.148H93.1631V2.02H98.3151V0.199999H90.9091V10H98.4971V8.18H93.1631ZM108.982 10L106.784 6.85C108.058 6.304 108.8 5.226 108.8 3.756C108.8 1.558 107.162 0.199999 104.544 0.199999H100.302V10H102.57V7.27H104.544H104.656L106.546 10H108.982ZM106.504 3.756C106.504 4.82 105.804 5.464 104.418 5.464H102.57V2.048H104.418C105.804 2.048 106.504 2.678 106.504 3.756Z" fill="#E1C167"/>
</svg>
