<svg width="30" height="32" viewBox="0 0 30 32" fill="none" xmlns="http://www.w3.org/2000/svg">
<path d="M29.8457 28.689L27.6792 22.1879H25.302L26.6221 28.5273H3.37871L4.69889 22.1879H2.32161L0.153538 28.689C-0.396405 30.3436 0.578278 31.697 2.32161 31.697H27.6792C29.4226 31.697 30.3972 30.3436 29.8457 28.689ZM22.9247 7.92425C22.9247 5.82261 22.0898 3.80705 20.6037 2.32096C19.1176 0.834874 17.1021 0 15.0004 0C12.8988 0 10.8832 0.834874 9.39713 2.32096C7.91104 3.80705 7.07617 5.82261 7.07617 7.92425C7.07617 15.4919 15.0004 23.7728 15.0004 23.7728C15.0004 23.7728 22.9247 15.4919 22.9247 7.92425ZM10.7213 8.01935C10.7213 7.45748 10.832 6.90112 11.0471 6.38205C11.2621 5.86297 11.5774 5.39135 11.9747 4.99413C12.3721 4.5969 12.8438 4.28186 13.363 4.06698C13.8822 3.85211 14.4386 3.74162 15.0004 3.74183C16.1351 3.74183 17.2233 4.19258 18.0256 4.99492C18.828 5.79726 19.2787 6.88546 19.2787 8.02014C19.2787 9.15481 18.828 10.243 18.0256 11.0454C17.2233 11.8477 16.1351 12.2984 15.0004 12.2984C13.8655 12.2984 12.7771 11.8476 11.9746 11.0451C11.1722 10.2426 10.7213 9.15423 10.7213 8.01935Z" fill="#E1C167"/>
</svg>
